<?xml version="1.0" encoding="UTF-8"?>
<svg xmlns="http://www.w3.org/2000/svg" viewBox="0 0 283.46 283.46">
  <path d="M99.23,89.28c-.16-.12.45.45.54.45l7.68-.1,2.11-.03,1.71.39-4.01.35.75,2.99-4.98.04c-.24,0-.91.82-.8.88l-1.9.06c0-1.28-2.35.16-3.41.14l.66,2.61c.06.23.62.43.7.4h.33c.05.17.45.48.66.49l1.38.05.28-.51,1.76.03c.45,0,1.34-.54,1.59-.96l1.3-.08.28.65,4.39-.24c.97-.05,2.07-.37,2.96-.32l2.29.13-.6,1.41c-.7,1.66-.67,3.5.2,4.13l3.45,2.51c.78.56,3.41.02,4.36-.19,1.36-.3,2.74.6,3.7,2.03l1.93.11c.61.03,1.58,1.43,1.92,2.23,1.79,4.18,3.06,4.19,4.51,6.12l1.86,2.48c1.09,3.62,1.84,2.87,4.35,4.24.68.37-.13,3.52,1.66,4.38l2.07.99c2.1,1,2.38-.79,4.09-.37.59,1.06,1.24,3.37,1.37,4.62l.07.68c.01.14.1.17.26.29.04.11.02.3.01.46l.02.64c0,.14.15.17.32.26.04.23.07.68.06.92l-.03.65c0,.16.13.18.3.27l.57,3.41c.07.41.65,1.17.96,1.16l5.85-.2-1.11-4.34-4.74-17.31-2.23-7.95-1.8-6.31c-.24-.84-.43-1.68-.54-2.4h0c-.12-.24-.32-.66-.39-.91l2.06-.18c1-.09,2.54-.45,3.35.54,1.08,1.32,1.54,6.4,1.83,6.46l.78.15,1.64,6.33,1.6,6.11,1.06,4.01c.13.51.91,1.14,1.33.96,5.72-2.4,10.3-5.69,15.07-10.46l1.57-1.57,1.27-1.27c.05.13.16.41.16.39l.73-.75c.19-.2.44-.85.48-1.12.35-.54.82-1.04,1.27-1.33.01.52-.15,1.68-.4,2.17l-1.78,3.52c-.2.4-.1,1.75.19,1.95s.78.44,1.42.76l.25,1.14c-.36.35-.94,1.05-1.28,1.43-.11.12-.28.4-.35.53l-4.14,3.72c-2.91,2.61-5.85,4.5-9.07,5.92l-4.47,1.96.97,4c.08.35.15,1.35.15,1.5l-1.55-.02c1.59,4.24,4.64,1.38,8.35,4.72l2.83,2.54,3.95-4.18.65-.26c.11-.04.06-.61.06-.68l.57-.49.38-.46,2.99-4.54c-.69,1.71,3.42-4.24,2.34-3.25l.87-1.52,2.05-3.52c.51-.87,1.01-1.68,1.49-2.38.5-.18.95.49,1.49,1.27.48.69,2.02-.13,2.59-.69l1.3-1.27c.54-.53,2.75-1.61,3.43-.64l-.25.96c-.1.1-.32.32-.4.48l-.66,1.28c-.54,1.03-1.07,1.98-1.59,2.86-.18.21-.5.62-.66.89-.05.09.05.38-.01.46-.11.11-.31.32-.38.49l-.61,1.35c-.2.2-.56.65-.71.95l-1.61,3.18c-.11.09-.32.31-.4.47-.51,1.19-1.75,3.23-2.62,4.14-.09.13-.25.36-.32.52-.14.31-.44.93-.65,1.24l-.67.96-.35.52c-.11.17-.42.4-.58.42l-.55.07c-.19.02-.18.63-.19.89-.46,1.12-3.63,4.51-4.6,5.44l-2.75,2.64.25,4.34c.06.97-.07,2.54-.21,3.64-.82,6.18-2.99,6.04-1.94,8.16,1.22,2.47,2.25,4.61,3.26,6.94l-.17.47c-.18.5,1.01,1.4.36,1.79-.5.3-1.73.52-2.27.25l-1.31-.65c-.42-.21-.84-.38-1.17-.48-.49-1.34-1.62-3.77-2.37-5.04-.13-.36-.19-.39-.36-.03l-1.26.75c-.7.42-2.01.91-2.68,1.1-.2.06-.64.29-.72.36l-.64.03c.28-.61-2.94-.62-2.68.04-.28-.01-.68-.03-.94-.02.97.06-1.97-1.19-1.41-.46l-.91-.06-.57-.57c-.09-.09-.5-.32-.57-.21l-.24.38h-.61c1,.07-2.03-1.23-1.38-.45h-.61s-.56-.63-.56-.63c-.09-.1-.52-.32-.59-.21l-.24.38-.94-.07-.68-.32-.33-.02c-.2-.3-.31-.34-.37-.06h-.61s-.37-.74-.37-.74c-.12-.24-.59.1-.71.28l-1.9-.41c-.17-.12-.24-.13-.39-.05l-.58-.03-.24-.85c-.06-.21-.43.24-.49.34l-.86.9c-.89.94-2.43,2.13-2.44,3.74l-.02,3.65c-1.64.22-1.62-.09-3.23-1.85-.47-.51-1.07-1.24-1.32-1.58.7-2.31-.3-4.5.1-4.63l.97-.33.51-.71v-.88c0-.24-.35-.43-.62-.62l-1.04-.75c-.69-.5-1.54-.94-2.34-1.41-5.43-3.2-1.71.56-5.95-2.75l-3.21-2.5-1.27-1.03c-.2-.17-.81-.78-.81-1.11l-.02-2.91,2.06-.27.29-.42c.15.02.44,0,.61,0-.39.78,2.02,1.17,2.02,1.17l1.69-.41c1.47.09,2.99.22,4.61.45l2.99.42,2.43.37,6.86,1.14c.09.17.36.69.52.59l.84-.52,1.63.3c.2.26.72.63,1.16.8.33.13,1.08-.52,1.18-.97l.55-2.5.34-1.54-.73-1.09-2.53-.12-.28.47c-.1,0-.24,0-.33,0-.04-.11-.21-.42-.33-.42,2.49-.11-4.28-.87-2.4-.82l-4.58-.13c-1.56-.05-2.29-.82-2.31-.24l-.02.7-.94.02-.36-.44c.31-.54-2.51-1.24-2.64-1.25l-4.87-.16c-.28,0-.77-.96-.99-1.09-2.03-1.18-2.11-.32-3.24-3.24l-.78-3.42.37-1.22c.44-.06,1.46-.5,1.91-.51l12.24-.26c-2.08-.32-4.24-.41-6.34-.41l.36-.42,6.27.03-.63-3.55c-.04-.2-.29-.58-.33-.6l-.03-.82-.32-.52-.6-1.83-.39-1.29c-.06-.19-.25-.43-.35-.54-.05-.08,0-.33-.01-.46l-.04-.61c0-.13-.11-.17-.25-.29l-.05-.67c-.02-.25-.48-.28-.62-.28l-.95-2.21c.09-.09.36-.3.27-.33l-.64-.21-.35-1.25c-.05-.19-.22-.4-.32-.55l-.31-.45c-.08-.54-.39-1.08-.71-1.39-.09-.09-.2-.29-.27-.43-.07-.51-.38-1.14-.69-1.42-.09-.08-.27-.28-.3-.42-.03-.16-.09-.51-.09-.69,0-.26-.43-.27-.61-.27-.58-.98-1.33-2.17-2.11-2.97l-1.18-1.21-.07-.34c.01-.2.03-.55.05-.72s-.3-.06-.41-.13l-.83-.52-.74-.09c-.05-.31-.51-.94-.8-1.11l-1.87-1.13c-.13-.08-1.17-1.88-3.97-1.78-.09,0-.25,0-.33-.01-.15-.21-.66-.42-.99-.45-.11,0-.26.01-.33-.01l-.55-.96c-.14-.25-.76.29-.82.45-.16,0-.44.01-.59-.03l-.03-.65c0-.18-.6-.37-.72-.28l-.65.51c-.16-.01-.44-.04-.59-.03.05-.09-.17-.86-.37-.87l-1.72-.04-.33.52-1.91-.06-.04-.66c-.01-.18-.5-.25-.65-.24l-2.72.24c.1,0-5.37.87-4.27,1.15-.85.01-1.52.22-2.52.6l.55,1.7,1.23,4.15,1.72,5.89.52,3.07c.1.57.55,1.6.82,2.02.02-.17.06-.37.05-.49.04,0,.28.38.28.56l-.33-.06.06,1.39.31-.42.3.78.33,1,.08.64c.02.13.12.17.27.3.04.1.01.3.01.46l.02.64c0,.15.17.18.33.26l.02.46.28.48.34,1.77c.04.19.22.42.33.52.05.08.02.29.01.46v.64c.02.15.2.18.36.25.01.11.04.32.02.42l-.08.5-1.27.06-.12,2.1c.32.73,1.11,1.77,1.54,1.42l.88-.72c.01.08.01.23.01.33l.33.43c.05.07.02.24.02.39l.07,1.26c.3-.38.64-.83.86-1.2l2.36-4.04c.7-1.2,1.47-2.32,2.23-3.21.07.08.22.27.22.28,0,.02.33-.45.4-.58l2.02-3.44,1.33-2.27,1.59-2.49c.17.18-.12-.13-.28-.3.27-.43.72-.98,1.04-1.36.23-.09.66-.35.81-.64l.55-1.02s-.19-.14-.28-.21l.88-1.34c.07-.04.53-.42.65-.59l1.4-1.9-.29-.29c.29-.45.62-.93.91-1.33h.35c.17,1.43-1.28,4.21-2.3,5.06l-1.91,2.81-1.34,2.35c-.28.49-.73,1.88-.72,2.61,0,.39,1,.56,1.3.45l1.63-.6-.04,1.09c-.82,1.39-1.88,3.07-2.85,4.55l-2.09,3.19-1.26,1.85c-.16.03-.77.3-.93.55l-.8,1.29v.43c-.66.02-1.38.65-1.99,1.37-1.3,1.55-.89.52-4.06,1.2-.37.08-1.22.42-1.45.13s-.58-.89-.68-1.3l-.78-3.02-1.5-5.78c-.15-.58-.4-1.31-.58-1.87l-1.8-5.87-1.85-5.59-1.7-5.12-.82-2.56c-.15-.48-.31-1.13-.47-1.77l-.58.52-.28-.04c-.37-.02-1.11.24-1.44.58l-1.22,1.23c-.15.06-.47.05-.63.09-.25.06-.53.49-.72.78-.09.14-.31.39-.49.57l-3.6,3.74c-1.35,1.41-3.68,5.23-4.81,7.25-1.56,2.81-3.36,7.23-3.99,10.43-.7-.72-1.57,6.08-1.62,6.77l-.21,3.16-.06.84c0,.14.07.18.21.36v5.31c-.12.19-.3.94-.25,1.26l.21,1.15-.97.33c.56,2.93.23,2.77-.84,5.36l-2.52-.37-2.31-1.22-.89.47c-.41-.55-.69-1.46-.77-2.26l.02-.69c0-.15-.12-.17-.29-.26l-.04-.53c.17-.36.29-1.39.19-1.85l-.37-1.63,1.49-.26v-3.47c.11-.28.19-.88.19-1.48,0-1.54-.67-2.55-1.61-2.91l-.47-1.17c.29-3.66.59-7.42,1.66-11.07l1.56-5.31c.06-.21,0-.99-.11-.93l-.6.32c-2.43,1.3-4.92,2.37-7.53,3.14l-2.19.41c1.36,1.19,5.36,1.15,5.52,3.14.1,1.28-7.67,2.52-8.98,2.64l-4.35.38-2.64.26-28.84-.05-5.33-.34-2.37-.18-3.96-.35-3.62-.45-2.67-.43-2.65-.47-3.03-.59,5.69-.51,3.96-.21,4.32-.48,3.66-.48,3.27-.45,3.03-.43,2.62-.42,2.34-.43,7.65-1.79c2.12-.5,4.2-1.11,6.27-1.78l8.38-2.71c.24-.08.75-.14.94-.16l.36-.4h.33c.04.07.21.43.22.43l.59-.24.85-.66h.33c.32-.09.82-.31,1-.46h.33l.66-.46h.33l1.05-.05-.41-.49.4-.37.87.66-.25-1.13h.33l.48.47c2-1.18,1.34.98,3.56-.57l1.08-.75c3.25-3.36,4.82-1.72,6.3-3.08l1.38-1.27c1.29-1.19,2.86-1.99,4.33-2.89l2-1.22,2.3-1.46c.47-.3.97-.93,1.09-1.46.08-.03.21-.05.31-.06.17.21.75.18,1.03.01l3.22-1.98s-.07-.27-.11-.47v-.43h.27s.34-.45.34-.45l.62-.09.36-.42c.06-.07.2-.04.33-.04.18.96.33.21.4-.32l.3-.09c.67.71,2.43-.86,3.29-2.21,1.53-2.42,2.01-.63,2.32-1.86l.45-.79-.84-.13-.05-.5c.08-.76-.15-2.45-.66-2.73l-1.47-.8c-.47-.26-.53-2.55-.03-2.66l2.35-.52c2.24-.49,4.02.6,4.25-1.04l.36-.42h.61Z" fill="#ffffff"/>
  <path d="M177.9,57.48l.87-.5,1.49-.86-.33-1.47c-.88-3.89-2.98-1.03-5.38-6.07-.58-1.22-2.29-.75-1.99-2.89l5,.19,11.29.42,4.31.21,6.26.26,6.68.21c1.67.05,3.31-.08,4.97-.19l4.98-.35,3.68-.42c.93-.11,2.01-.33,2.91-.58l2.56-.71c4.83-1.34,11.09-3.78,14.14-9.48.83-1.56.9-4.11.03-5.72-1.38-2.55-4.44-3.45-6.06-2.91l-3.03,1.01.04,1.08h-.54c.08-.06-.63-.4-.82-.3l-3.6,1.79-2.02.03c-.34,0-.98.26-1.31.42l-4.36-.18c-1.42-.06-4.93-1.17-5.18-4.6-.13-1.71.64-3.77,1.64-4.8,3.59-3.69,6.12-3.28,9.94-6.08,2.35-1.72,4.65-7.76,3.15-9.55-.61-.72-1.06-2.3-.78-3.41.22-.9,1.26-2.15,2.21-2,2.91.46,2.02,7.69,9.62,13.24,1.08.79,2.21,1.6,3.33,2.18l3.12,1.6c5.92,3.02,14.92,7.69,16.05,17.77.77,6.82-1.56,11.82-5.69,15.32-5.5,4.66-13.76,7.55-20.07,8.38l-4.32.57-3.7.44c-5.51.65-17.01.44-22.66.04l-6.23-.43-6.64-.47-6.3-.46-5.99-.45c-.45-.03-1.01-.16-1.3-.25Z" fill="#ffffff"/>
  <path d="M210.99,141.51l-.2.94c-.12-.65-.77-.39-.78.19l.82.25-.07.9c-.2.17-.2.34-.02.54v.79s-.27.53-.37.73c-.06.13.23.25.34.29v4.51s-.51.51-.51.51l.56,1.39c1.55,14.71,7.33,28.09,17.46,34.6,8.73,5.61,18.16,6.42,27.12,1.42,5.52-3.09,10.12-7.78,13.49-14.51l.92-1.84.34-.42c0-.16-.04-.38.01-.46.1-.12.28-.34.34-.51l.3-.9.83-.09-.44-.91c.2-.57.46-1.23.71-1.76l1.33.42c3.07.97,2.4.08,4.39,1.37.49.32,1.25.75,1.65.68.9-.16.58-2.22,2.18-2.03l.02.56-.32,1.75-.36.97v.46s-.34.91-.34.91v.46s-.33.46-.33.46c0,.12,0,.35-.01.46-.09.08-.28.28-.32.45l-.31,1.31-.35.54v.46s-.33.45-.33.45v.46s-.34.45-.34.45c0,.15.04.34,0,.42l-.3.49-.97,1.37-.28.45c-.18.56-.53,1.46-.85,1.99l-1.51,2.59c-.21.24-.53.64-.72.94-2.95,4.49-5.4,7.18-9.42,10.24-1.38,1.05-2.81,2.03-4.28,2.77l-2.7,1.36c-.65.33-1.56.66-2.26.88l-5.52,1.74c-.62.19-1.34.36-2,.47l-2.95.51c-.88.15-1.8.31-2.71.39l-5.95.51c-1.36.12-2.59.26-4.04.26h-57.36c.25-2.53-.26-1.89-1.77-3.75,1.28-1.91,1.21-.86,3.81-1.5l1.95-.48-5.48-.14c-.13,0-.64-.47-.53-.4l6.68-.03,10.29.16,2.31.22,10.27.1.32.44h2.32s1.23.41,1.23.41l8.76.08.69-.57,10.66.09c.22-.32.39-.56.33-.48l-3.66-2.49c-3.35-2.28-6.61-5.83-9.26-9.56-4.92-6.91-7.9-14.01-9.93-23.32l-.85-3.89-1.75,1.91c-.68.75-1.84-.73-1.83-2.28l.03-11.25c.17-.19.2-.36.03-.5l.62-6.33s.1-.66.09-.59l.57-3.59s.1-.61.09-.54l1.23-4.6.75.11c.33.05.2,2.38.77,2.34l.98-.06c.83-.05.45.34,2.44,2.38.42.43.61,2.21.99,2.69,1.9,2.42,1.62,2.1,2.11,1.3.26-.41.83-1.05.92-.67s.28,1.19.27,1.12Z" fill="#ffffff"/>
</svg>
