<?xml version="1.0" encoding="UTF-8"?>
<svg id="Calque_1" data-name="Calque 1" xmlns="http://www.w3.org/2000/svg" viewBox="0 0 283.46 283.46">
  <path d="M99.23,89.28c-.16-.12.45.45.54.45l7.68-.1,2.11-.03,1.71.39-4.01.35.75,2.99-4.98.04c-.24,0-.91.82-.8.88l-1.9.06c0-1.28-2.35.16-3.41.14l.66,2.61c.06.23.62.43.7.4h.33c.05.17.45.48.66.49l1.38.05.28-.51,1.76.03c.45,0,1.34-.54,1.59-.96l1.3-.08.28.65,4.39-.24c.97-.05,2.07-.37,2.96-.32l2.29.13-.6,1.41c-.7,1.66-.67,3.5.2,4.13l3.45,2.51c.78.56,3.41.02,4.36-.19,1.36-.3,2.74.6,3.7,2.03l1.93.11c.61.03,1.58,1.43,1.92,2.23,1.79,4.18,3.06,4.19,4.51,6.12l1.86,2.48c1.09,3.62,1.84,2.87,4.35,4.24.68.37-.13,3.52,1.66,4.38l2.07.99c2.1,1,2.38-.79,4.09-.37.59,1.06,1.24,3.37,1.37,4.62l.07.68c.01.14.1.17.26.29.04.11.02.3.01.46l.02.64c0,.14.15.17.32.26.04.23.07.68.06.92l-.03.65c0,.16.13.18.3.27l.57,3.41c.07.41.65,1.17.96,1.16l5.85-.2-1.11-4.34-4.74-17.31-2.23-7.95-1.8-6.31c-.24-.84-.43-1.68-.54-2.4h0c-.12-.24-.32-.66-.39-.91l2.06-.18c1-.09,2.54-.45,3.35.54,1.08,1.32,1.54,6.4,1.83,6.46l.78.15,1.64,6.33,1.6,6.11,1.06,4.01c.13.51.91,1.14,1.33.96,5.72-2.4,10.3-5.69,15.07-10.46l1.57-1.57,1.27-1.27c.05.13.16.41.16.39l.73-.75c.19-.2.44-.85.48-1.12.35-.54.82-1.04,1.27-1.33.01.52-.15,1.68-.4,2.17l-1.78,3.52c-.2.4-.1,1.75.19,1.95s.78.44,1.42.76l.25,1.14c-.36.35-.94,1.05-1.28,1.43-.11.12-.28.4-.35.53l-4.14,3.72c-2.91,2.61-5.85,4.5-9.07,5.92l-4.47,1.96.97,4c.08.35.15,1.35.15,1.5l-1.55-.02c1.59,4.24,4.64,1.38,8.35,4.72l2.83,2.54,3.95-4.18.65-.26c.11-.04.06-.61.06-.68l.57-.49.38-.46,2.99-4.54c-.69,1.71,3.42-4.24,2.34-3.25l.87-1.52,2.05-3.52c.51-.87,1.01-1.68,1.49-2.38.5-.18.95.49,1.49,1.27.48.69,2.02-.13,2.59-.69l1.3-1.27c.54-.53,2.75-1.61,3.43-.64l-.25.96c-.1.1-.32.32-.4.48l-.66,1.28c-.54,1.03-1.07,1.98-1.59,2.86-.18.21-.5.62-.66.89-.05.09.05.38-.01.46-.11.11-.31.32-.38.49l-.61,1.35c-.2.2-.56.65-.71.95l-1.61,3.18c-.11.09-.32.31-.4.47-.51,1.19-1.75,3.23-2.62,4.14-.09.13-.25.36-.32.52-.14.31-.44.93-.65,1.24l-.67.96-.35.52c-.11.17-.42.4-.58.42l-.55.07c-.19.02-.18.63-.19.89-.46,1.12-3.63,4.51-4.6,5.44l-2.75,2.64.25,4.34c.06.97-.07,2.54-.21,3.64-.82,6.18-2.99,6.04-1.94,8.16,1.22,2.47,2.25,4.61,3.26,6.94l-.17.47c-.18.5,1.01,1.4.36,1.79-.5.3-1.73.52-2.27.25l-1.31-.65c-.42-.21-.84-.38-1.17-.48-.49-1.34-1.62-3.77-2.37-5.04-.13-.36-.19-.39-.36-.03l-1.26.75c-.7.42-2.01.91-2.68,1.1-.2.06-.64.29-.72.36l-.64.03c.28-.61-2.94-.62-2.68.04-.28-.01-.68-.03-.94-.02.97.06-1.97-1.19-1.41-.46l-.91-.06-.57-.57c-.09-.09-.5-.32-.57-.21l-.24.38h-.61c1,.07-2.03-1.23-1.38-.45h-.61s-.56-.63-.56-.63c-.09-.1-.52-.32-.59-.21l-.24.38-.94-.07-.68-.32-.33-.02c-.2-.3-.31-.34-.37-.06h-.61s-.37-.74-.37-.74c-.12-.24-.59.1-.71.28l-1.9-.41c-.17-.12-.24-.13-.39-.05l-.58-.03-.24-.85c-.06-.21-.43.24-.49.34l-.86.9c-.89.94-2.43,2.13-2.44,3.74l-.02,3.65c-1.64.22-1.62-.09-3.23-1.85-.47-.51-1.07-1.24-1.32-1.58.7-2.31-.3-4.5.1-4.63l.97-.33.51-.71v-.88c0-.24-.35-.43-.62-.62l-1.04-.75c-.69-.5-1.54-.94-2.34-1.41-5.43-3.2-1.71.56-5.95-2.75l-3.21-2.5-1.27-1.03c-.2-.17-.81-.78-.81-1.11l-.02-2.91,2.06-.27.29-.42c.15.02.44,0,.61,0-.39.78,2.02,1.17,2.02,1.17l1.69-.41c1.47.09,2.99.22,4.61.45l2.99.42,2.43.37,6.86,1.14c.09.17.36.69.52.59l.84-.52,1.63.3c.2.26.72.63,1.16.8.33.13,1.08-.52,1.18-.97l.55-2.5.34-1.54-.73-1.09-2.53-.12-.28.47c-.1,0-.24,0-.33,0-.04-.11-.21-.42-.33-.42,2.49-.11-4.28-.87-2.4-.82l-4.58-.13c-1.56-.05-2.29-.82-2.31-.24l-.02.7-.94.02-.36-.44c.31-.54-2.51-1.24-2.64-1.25l-4.87-.16c-.28,0-.77-.96-.99-1.09-2.03-1.18-2.11-.32-3.24-3.24l-.78-3.42.37-1.22c.44-.06,1.46-.5,1.91-.51l12.24-.26c-2.08-.32-4.24-.41-6.34-.41l.36-.42,6.27.03-.63-3.55c-.04-.2-.29-.58-.33-.6l-.03-.82-.32-.52-.6-1.83-.39-1.29c-.06-.19-.25-.43-.35-.54-.05-.08,0-.33-.01-.46l-.04-.61c0-.13-.11-.17-.25-.29l-.05-.67c-.02-.25-.48-.28-.62-.28l-.95-2.21c.09-.09.36-.3.27-.33l-.64-.21-.35-1.25c-.05-.19-.22-.4-.32-.55l-.31-.45c-.08-.54-.39-1.08-.71-1.39-.09-.09-.2-.29-.27-.43-.07-.51-.38-1.14-.69-1.42-.09-.08-.27-.28-.3-.42-.03-.16-.09-.51-.09-.69,0-.26-.43-.27-.61-.27-.58-.98-1.33-2.17-2.11-2.97l-1.18-1.21-.07-.34c.01-.2.03-.55.05-.72s-.3-.06-.41-.13l-.83-.52-.74-.09c-.05-.31-.51-.94-.8-1.11l-1.87-1.13c-.13-.08-1.17-1.88-3.97-1.78-.09,0-.25,0-.33-.01-.15-.21-.66-.42-.99-.45-.11,0-.26.01-.33-.01l-.55-.96c-.14-.25-.76.29-.82.45-.16,0-.44.01-.59-.03l-.03-.65c0-.18-.6-.37-.72-.28l-.65.51c-.16-.01-.44-.04-.59-.03.05-.09-.17-.86-.37-.87l-1.72-.04-.33.52-1.91-.06-.04-.66c-.01-.18-.5-.25-.65-.24l-2.72.24c.1,0-5.37.87-4.27,1.15-.85.01-1.52.22-2.52.6l.55,1.7,1.23,4.15,1.72,5.89.52,3.07c.1.57.55,1.6.82,2.02.02-.17.06-.37.05-.49.04,0,.28.38.28.56l-.33-.06.06,1.39.31-.42.3.78.33,1,.08.64c.02.13.12.17.27.3.04.1.01.3.01.46l.02.64c0,.15.17.18.33.26l.02.46.28.48.34,1.77c.04.19.22.42.33.52.05.08.02.29.01.46v.64c.02.15.2.18.36.25.01.11.04.32.02.42l-.08.5-1.27.06-.12,2.1c.32.73,1.11,1.77,1.54,1.42l.88-.72c.01.08.01.23.01.33l.33.43c.05.07.02.24.02.39l.07,1.26c.3-.38.64-.83.86-1.2l2.36-4.04c.7-1.2,1.47-2.32,2.23-3.21.07.08.22.27.22.28,0,.02.33-.45.4-.58l2.02-3.44,1.33-2.27,1.59-2.49c.17.18-.12-.13-.28-.3.27-.43.72-.98,1.04-1.36.23-.09.66-.35.81-.64l.55-1.02s-.19-.14-.28-.21l.88-1.34c.07-.04.53-.42.65-.59l1.4-1.9-.29-.29c.29-.45.62-.93.91-1.33h.35c.17,1.43-1.28,4.21-2.3,5.06l-1.91,2.81-1.34,2.35c-.28.49-.73,1.88-.72,2.61,0,.39,1,.56,1.3.45l1.63-.6-.04,1.09c-.82,1.39-1.88,3.07-2.85,4.55l-2.09,3.19-1.26,1.85c-.16.03-.77.3-.93.55l-.8,1.29v.43c-.66.02-1.38.65-1.99,1.37-1.3,1.55-.89.52-4.06,1.2-.37.08-1.22.42-1.45.13s-.58-.89-.68-1.3l-.78-3.02-1.5-5.78c-.15-.58-.4-1.31-.58-1.87l-1.8-5.87-1.85-5.59-1.7-5.12-.82-2.56c-.15-.48-.31-1.13-.47-1.77l-.58.52-.28-.04c-.37-.02-1.11.24-1.44.58l-1.22,1.23c-.15.06-.47.05-.63.09-.25.06-.53.49-.72.78-.09.14-.31.39-.49.57l-3.6,3.74c-1.35,1.41-3.68,5.23-4.81,7.25-1.56,2.81-3.36,7.23-3.99,10.43-.7-.72-1.57,6.08-1.62,6.77l-.21,3.16-.06.84c0,.14.07.18.21.36v5.31c-.12.19-.3.94-.25,1.26l.21,1.15-.97.33c.56,2.93.23,2.77-.84,5.36l-2.52-.37-2.31-1.22-.89.47c-.41-.55-.69-1.46-.77-2.26l.02-.69c0-.15-.12-.17-.29-.26l-.04-.53c.17-.36.29-1.39.19-1.85l-.37-1.63,1.49-.26v-3.47c.11-.28.19-.88.19-1.48,0-1.54-.67-2.55-1.61-2.91l-.47-1.17c.29-3.66.59-7.42,1.66-11.07l1.56-5.31c.06-.21,0-.99-.11-.93l-.6.32c-2.43,1.3-4.92,2.37-7.53,3.14l-2.19.41c1.36,1.19,5.36,1.15,5.52,3.14.1,1.28-7.67,2.52-8.98,2.64l-4.35.38-2.64.26-28.84-.05-5.33-.34-2.37-.18-3.96-.35-3.62-.45-2.67-.43-2.65-.47-3.03-.59,5.69-.51,3.96-.21,4.32-.48,3.66-.48,3.27-.45,3.03-.43,2.62-.42,2.34-.43,7.65-1.79c2.12-.5,4.2-1.11,6.27-1.78l8.38-2.71c.24-.08.75-.14.94-.16l.36-.4h.33c.04.07.21.43.22.43l.59-.24.85-.66h.33c.32-.09.82-.31,1-.46h.33l.66-.46h.33l1.05-.05-.41-.49.4-.37.87.66-.25-1.13h.33l.48.47c2-1.18,1.34.98,3.56-.57l1.08-.75c3.25-3.36,4.82-1.72,6.3-3.08l1.38-1.27c1.29-1.19,2.86-1.99,4.33-2.89l2-1.22,2.3-1.46c.47-.3.97-.93,1.09-1.46.08-.03.21-.05.31-.06.17.21.75.18,1.03.01l3.22-1.98s-.07-.27-.11-.47v-.43h.27s.34-.45.34-.45l.62-.09.36-.42c.06-.07.2-.04.33-.04.18.96.33.21.4-.32l.3-.09c.67.71,2.43-.86,3.29-2.21,1.53-2.42,2.01-.63,2.32-1.86l.45-.79-.84-.13-.05-.5c.08-.76-.15-2.45-.66-2.73l-1.47-.8c-.47-.26-.53-2.55-.03-2.66l2.35-.52c2.24-.49,4.02.6,4.25-1.04l.36-.42h.61ZM110.62,98.89c-.73-.56-1.44-.66-1.53-.1-.05.32.36.69.95,1.15l.58-1.05Z" fill="#1e4494"/>
  <path d="M177.9,57.48l.87-.5,1.49-.86-.33-1.47c-.88-3.89-2.98-1.03-5.38-6.07-.58-1.22-2.29-.75-1.99-2.89l5,.19,11.29.42,4.31.21,6.26.26,6.68.21c1.67.05,3.31-.08,4.97-.19l4.98-.35,3.68-.42c.93-.11,2.01-.33,2.91-.58l2.56-.71c4.83-1.34,11.09-3.78,14.14-9.48.83-1.56.9-4.11.03-5.72-1.38-2.55-4.44-3.45-6.06-2.91l-3.03,1.01.04,1.08h-.54c.08-.06-.63-.4-.82-.3l-3.6,1.79-2.02.03c-.34,0-.98.26-1.31.42l-4.36-.18c-1.42-.06-4.93-1.17-5.18-4.6-.13-1.71.64-3.77,1.64-4.8,3.59-3.69,6.12-3.28,9.94-6.08,2.35-1.72,4.65-7.76,3.15-9.55-.61-.72-1.06-2.3-.78-3.41.22-.9,1.26-2.15,2.21-2,2.91.46,2.02,7.69,9.62,13.24,1.08.79,2.21,1.6,3.33,2.18l3.12,1.6c5.92,3.02,14.92,7.69,16.05,17.77.77,6.82-1.56,11.82-5.69,15.32-5.5,4.66-13.76,7.55-20.07,8.38l-4.32.57-3.7.44c-5.51.65-17.01.44-22.66.04l-6.23-.43-6.64-.47-6.3-.46-5.99-.45c-.45-.03-1.01-.16-1.3-.25Z" fill="#49bed8"/>
  <path d="M210.99,141.51l-.2.94c-.12-.65-.77-.39-.78.19l.82.25-.07.9c-.2.17-.2.34-.02.54v.79s-.27.53-.37.73c-.06.13.23.25.34.29v4.51s-.51.51-.51.51l.56,1.39c1.55,14.71,7.33,28.09,17.46,34.6,8.73,5.61,18.16,6.42,27.12,1.42,5.52-3.09,10.12-7.78,13.49-14.51l.92-1.84.34-.42c0-.16-.04-.38.01-.46.1-.12.28-.34.34-.51l.3-.9.83-.09-.44-.91c.2-.57.46-1.23.71-1.76l1.33.42c3.07.97,2.4.08,4.39,1.37.49.32,1.25.75,1.65.68.9-.16.58-2.22,2.18-2.03l.02.56-.32,1.75-.36.97v.46s-.34.91-.34.91v.46s-.33.46-.33.46c0,.12,0,.35-.01.46-.09.08-.28.28-.32.45l-.31,1.31-.35.54v.46s-.33.45-.33.45v.46s-.34.45-.34.45c0,.15.04.34,0,.42l-.3.49-.97,1.37-.28.45c-.18.56-.53,1.46-.85,1.99l-1.51,2.59c-.21.24-.53.64-.72.94-2.95,4.49-5.4,7.18-9.42,10.24-1.38,1.05-2.81,2.03-4.28,2.77l-2.7,1.36c-.65.33-1.56.66-2.26.88l-5.52,1.74c-.62.19-1.34.36-2,.47l-2.95.51c-.88.15-1.8.31-2.71.39l-5.95.51c-1.36.12-2.59.26-4.04.26h-57.36c.25-2.53-.26-1.89-1.77-3.75,1.28-1.91,1.21-.86,3.81-1.5l1.95-.48-5.48-.14c-.13,0-.64-.47-.53-.4l6.68-.03,10.29.16,2.31.22,10.27.1.32.44h2.32s1.23.41,1.23.41l8.76.08.69-.57,10.66.09c.22-.32.39-.56.33-.48l-3.66-2.49c-3.35-2.28-6.61-5.83-9.26-9.56-4.92-6.91-7.9-14.01-9.93-23.32l-.85-3.89-1.75,1.91c-.68.75-1.84-.73-1.83-2.28l.03-11.25c.17-.19.2-.36.03-.5l.62-6.33s.1-.66.09-.59l.57-3.59s.1-.61.09-.54l1.23-4.6.75.11c.33.05.2,2.38.77,2.34l.98-.06c.83-.05.45.34,2.44,2.38.42.43.61,2.21.99,2.69,1.9,2.42,1.62,2.1,2.11,1.3.26-.41.83-1.05.92-.67s.28,1.19.27,1.12Z" fill="#1e4494"/>
  <path d="M278.41,125.9c.06.16.24.37.32.45v.46c.02.15.27.42.33.46v.46c.03.57.03,1.86.33,2.28l1,1.39c.02.11.01.31.01.46l-.02,1.66.67.23.02.41.32.91v.46c.05,1.39.18,3.86,1.02,4.67,0,.21.02.62.01.83l-.04,1.52.37.39v.84s-.02,3.72-.02,3.72c-.02,2.66.65,1.22.24,6.77l-.25,3.31-.21,2.85c-.07.89-.07,2.34-.08,3.08v.46c-.15.23-.29.92-.33,1.37v.46s-.36.99-.36.99v.42s-.35.41-.35.41c-1.61-.19-1.29,1.87-2.18,2.03-.4.07-1.16-.37-1.65-.68-1.99-1.29-1.32-.4-4.39-1.37l-1.33-.42.52-2.43c1.48-6.87,2.09-11.26,1.73-18.63-.19-3.72-1.01-7.23-1.77-10.74l-.25-1.15-.29-.52c-.05-.09.05-.38-.01-.46l-.34-.44c-1.64-4.18-3.01-7.66-5.74-11.24l-2.08-2.73c-1.35-1.77-2.98-3.24-4.6-4.62-8.47-7.23-18.3-9.36-27.96-6.22l-1.56.51-.89-3.17-2.3-8.26c-.07-.24-.1-.72-.07-.91.02-.13.36-.44.49-.49l4.49-1.92c2.45-1.05,14.15-3.75,14.6-1.47.27,1.37-1.28,2.33-1.63,2.66l-1.55,1.44,1.64.33,2.34.47c5.06,1.02,8.47,2.44,13.09,5.24,5.09,3.09,10.61,8.73,14.2,14.6,1.45,2.37,3.68,6.54,4.53,8.9Z" fill="#2555a3"/>
  <path d="M75.34,170.95c.35.45.88,1.82,1.27,2.27,1.26,1.42,2.68,2.8,4.05,4,.94.82,3.07.82,3.6-.26l1.13-2.31,2.93,4c3.22,4.39,5.14,6.19,9.16,8.92,1.2.82,2.54,1.69,3.74,2.07.04.08.66.65.88.75l2.06.86c.17.07.82-.15.79-.24l.56.03c.19.69.94,1.02,1.51.91,0,.48-.08,1.58.11,1.97,1.68,3.36,5.3,5.94,8.06,7.6l2.51,1.51c.21.13.7.94.91,1.26l4.22.04.3.46h-22.23s-.36.41-.36.41h-1.94c-.06-.19-.09-.31-.21-.31l-.48.02-13.03.03-2.85-.1-.33-.52h-4.41s-.31.43-.31.43h-2.6c-.09-.18-.3-.17-.39-.01l-2.93-.15-3.34-.17-.31-.56-6.69.05-.65.11-1.66-.03-3.28-.16c-.39-.02-2.37-.99-2.06,0l-1.91-.2.59-.63.38-.47c1.72-.41,3.52-.81,5.39-1.09l6.85-1.06,2.67-.41,3.98-.53,3.98-.43,5.31-.43,7.96-.37c1.03-.05,1.81-.15,2.94-.3-.28-.47-.59-1-.79-1.18l-2.82-2.49c-1.04-.92-3.52-4.15-4.54-5.58-.89-1.25-1.8-1.98-3.02-1.73-.13-.14-.72-.47-.99-.5l-2.05-.22,1.3-2.67c.28-.58.45-2.25.31-2.97-.27-.22-.96-.52-1.25-.52l-.3-.57-.8-2.05-1.86-4.73-.42-.92c-.04-.09-.03-.29-.03-.46.31-.3.92-.42,1.39-.38Z" fill="#2a376e"/>
  <path d="M119.77,76.47l.08.82,2.04.06.34-.52,2.84.16c-.06.16.37,1.06.56.86l.58-.57,2.18.17.25.82c.07.22.53-.41.56-.48l3.23.7.39.59c1.37,2.04.55,3.22-.37,5.04l-1.6-.04-.25-.83c-.07-.22-.53.47-.55.53l-3.19-.16-.06-.58c-.04-.38-2.45-.39-2.06.29h-6.52s-.55-.59-.55-.59c-.15-.16-.52.48-.54.61l-6.59.51-3.59.43-3.72.5-2.65.45-4.83.98-3.5.72c-1.2.25-2.43.52-3.62.88l-7.1,2.19c-3.38,1.04-7.6,3.08-10.82,5.06-1.07.66-1.92,1.64-2.68,2.93-.47.8-.34,2.65.39,3.11,1.21.76,2.01,1.01,3.51,1.56.1-.12-.14.17-.4.49l-3.27.44c-2.58.35-13.53.94-14.05-4.33-.09-.93.5-2.78,1.02-3.34l1.91-2.06c.39-.42,1.29-1.03,1.84-1.4l2.46-1.67c4.44-3.02,15.2-7.09,20.16-8.43l8.36-2.26c2.42-.66,4.76-1.23,7.16-1.57l5.37-.77.54.52c.14.14.29-.77.27-.81l2.84-.18c-.02.05.44.76.54.53l.22-.57,4.19-.38c.02.05.59.48.76.48h2.64c.18,0,.48-.83.4-.86h4.86Z" fill="#2db5dc"/>
  <path d="M226.04,103.95c.03.09,0,.3,0,.42l.33.47v.46s.02.65.02.65c0,.15.18.18.34.25.04.1.02.31.03.46l.29.47c.05.08.02.29.01.46v.65c0,.15.18.18.34.25.04.1.02.31.03.46l.28.47.07.79.02,1.06c0,.19.46.09.56.06v.39s.03,1.71.03,1.71c0,.21.63.23.63.19.01.1-.05.31,0,.39l.31.55c.62,2.34,1.43,4.62,2.27,6.85l-.42-.32-1.4-1.05-1.17-1.42c-5.01.23-2.52-.98-5.17-1l-.85-2.02-1.59.76c-.36-.11-1.15-.34-1.54-.34l-3.17.06c-3.57.07-2.88-1.58-5.08-.62-2.56,1.11-.99-.84-3.44.4,1.18-2.41,3.56-6.21,5.29-8.28l2.48-2.98,2.52-2.95-.32-1.4c-.04-.19-.3-.52-.34-.54l-.34-1.69c-.04-.2-.24-.47-.34-.59-.05-.09-.01-.29-.01-.46l-.31-.49-.82-2.66-3.49,4.59c-1.87,2.46-3.62,5.06-5.27,7.81l-2.59,4.3-1.45,2.52-2.05,3.63c-.39.68-.89,1.38-1.3,1.85-.4-1.58-.93-.07-3.14-1.79-.99-.77-1.74-1.47-2.5-2.26.12-.49.4-1.3.68-1.81l6.28-11.13c.55-.98,1.21-2.02,1.82-2.97l2.01-3.14,6.08-8.68c.32-.46,1.19-.98,1.6-1.19-.06.56.23,1.75.53,2.15l1.39,1.87,2.8,3.78c.26.35,1.62,4.87,3.45,4.08l2.66,3.1c.25.3.76,1.19,1.02,1.46l1.93,1.94Z" fill="#2555a3"/>
  <path d="M136.36,258.5l-4.6.27c-.25.01-.99-.54-.99-.98l-.02-11.66c0-1.08-.71-2.7-1.35-3.12-.36-.23-1.52-.23-1.88,0-.73.47-1.41,2.36-1.41,3.46l-.07,12.12-4.8.11c-.28,0-1.01-.48-1.01-1l.02-21.23,5.43-.03.24,2.17,1.66-1.54c1.49-1.38,4.04-1.57,5.6-.24.8.69,1.5,1.56,2.31,2.46,2.51-3.75,6.56-4.53,9.49-1.33,1.26,1.37,2.03,5.41,2.04,6.65l.06,12.96c0,.47-.65,1.13-.98,1.13l-3.39-.06c-.45,0-1.07-.12-1.59-.23l-.02-12.42c0-.8-.51-2.18-1.02-2.76-.37-.43-1.52-.59-1.99-.36-1.26.62-1.61,3.74-1.62,4.73l-.1,10.88Z" fill="#2c3261"/>
  <path d="M210.73,243.59c3.32,1.71,4.5,6.27,3.03,10.47-1.62,4.62-5.87,4.56-8.98,4.6l-7.68.1c-.37,0-1.08-.22-1.59-.41v-28.79s10.31-.05,10.31-.05c1.01,0,2.2.34,3.2.63,2.02.7,3.52,2.38,4.18,5.14.6,2.51.03,5.34-1.66,6.94-.19.18-.5.75-.8,1.36ZM205.83,241.06c1.07-.02,1.93-1.18,1.96-2.56.1-3.82-4.64-2.71-6.46-2.68l-.04,4.59c0,.36.87.7,1.15.7l3.39-.05ZM208.22,248.31c-.26-.57-1.32-1.38-1.86-1.37l-4.93.05v5.53c1.99.01,3.67.02,5.53-.17,1.27-.13,1.93-2.58,1.26-4.04Z" fill="#2a3b7b"/>
  <path d="M138.07,44.76l-.57.46c-1.08,0-1.82.02-2.79.4l18.96.09.33-.54,5.68-.03-.19,2.54c-.12,1.62-.13,3.08-.16,5.02.17,1.99-1.32,1.26-1.03,3.06l-.74.44h-3.26c-.17-.01-.56-.23-.65-.39-.11-.18-.36-.52-.81-.52h-29.48c-.25,0-.76.53-.59.49-1.12.2-2.36.38-3.62.39l-6.99.08c-.12.09.4-.44.49-.44l5.42-.15c.61-.02,3.47-.45,3.4-2.3-.05-1.48-.68-3.7-1.18-5.04l-.64-1.71-4.7-.03c-.09,0-.59-.47-.48-.4l2.58-.21,7.68-.45,6.03-.31,2.94-.22,1.39-.12,2.97-.12Z" fill="#069ad5"/>
  <path d="M76.01,258.64l-.88-2.57-.93-2.72-8.51.03-1.56,5.24-3.73.08c-.73.01-1.34-.1-2.25-.3l1.82-6.09,1.6-5.28.97-3.16,1.87-6.09,2.59-8.27,5.9.05,1.73,5.5,1.73,5.38.72,2.23,1.53,4.79.9,2.84,2.51,8.1c-.82.14-1.37.25-1.99.25h-4.01ZM71.98,247.41s.5-.75.48-.79l-2.5-8.2-2.66,8.83,4.68.16Z" fill="#2c3261"/>
  <path d="M237.89,246.64l2.96,6.33,2.07,4.44.32.75c.08.2-.51.56-.71.56l-5.58-.17-1.55-3.34-1.99-4.29-1.8,2.6-.28,5.08-5.66-.06v-31.11s4.95-.15,4.95-.15c.24,0,.84.25.85.51s.02.86.02,1.29l-.04,10.13c0,1.48.09,2.99.22,4.68l5.17-7.52,6.33.14c-.16.35-.39.87-.51,1.05l-1.58,2.32-2.9,4.27c-.46.68-.72,1.58-.3,2.48Z" fill="#2a3b7b"/>
  <path d="M170.22,34.62l-.22-2.23,1.97-.81c.94-.38,2.28-.57,3.07-1.12l2.53-1.75s.34.39.42.48l2.68-1.25,1.45-.69c.35-.23.57-.37.06-.04l-.97-.9c1.53.64,3.32-.56,3.47-3.07l-.21-1.41c.65-.14,1.27-.95,1.44-1.83,1.5,1.33,3.22,2.82,5.1,3.05,5.95.74,16.73-2.06,20.77-8.43,1.5-2.37,2.32-3.62,2.35-6.6.01-1.38-.86-2.78-1.62-2.73-.35,1.9-1.13,3.84-2.23,4.82-.41.36-1.7.31-2.14-.07-.83-.72-.92-3.17-.14-4.37,1.03-1.58,2.39-2.59,4.07-2.18s3.12,2.67,3.63,4.44c.76,2.68.36,5.24-.64,7.48-1.92,4.28-5.15,6.6-8.39,9.05-3.63,2.75-7.3,4.45-11.33,5.92l-3.66,1.33c-1.56.57-7.53,1.99-8.92,2.1l-6.76.52-5.8.27Z" fill="#49bed8"/>
  <path d="M30.53,90.18h.78c.49.02-.28,2.98,3.21,2.9,5.94,1.9,3.42-2.84,8.67-2.63.29.01.4,1.15.36,1.44-.08.04-.26,0-.33.08l-.38.49-.66.39-.64.5-.33.02-.33.43-.33.02-.37.51c-.06.08-.25,0-.33.02-.44.25-1.05.82-1.29,1.3-.11,0-.27-.06-.33.02l-.71.94c-.06.08-.26-.04-.33.02-.42.35-2.43,2.34-1.98,2.75l-.25.02c-.14.04-.37.03-.36.19s0,.49,0,.65c0,.14-.01.35-.01.46-.16.11-.72.48-.66.78l.26,1.23c.05.22.29.63.42.77.39.43.99,1.17,1.29,1.71l.78,1.41c-.74,1.27-1.17,3.44-.36,4.56.56.77,1.6,1.76,2.2,2.25l4.04,1.33,4.63.5-6.95.25c-.19,0-.79.34-.73.37-.49-.03-1.1-.05-1.59-.04l-.29-.44h-2.43s-.93-.03-.93-.03l-.28-.42c-.55,0-.9.01-1.13,0-1.31-.09-2.49-.41-3.9-1.01l-3.37-1.43c-1.81-.77-4.58-3.04-5.68-5.68-.4-.95-.47-3.54-.07-4.54,1.14-2.91,2.71-5.34,4.63-7.17,1.49-1.43,4.68-4.34,6.07-4.9Z" fill="#2a376e"/>
  <path d="M212.04,80.96l-1.35-3.7-1.92,2.89-5.81,8.89-2.96,4.55-1.43,2.23-4.55,6.94c-2.69,4.09-7.05,10.2-10.08,13.67-.69.79-1.45,1.45-2.1,2.08l-.25-1.14c-.64-.32-1.12-.56-1.42-.76s-.39-1.55-.19-1.95l1.78-3.52c.25-.49.41-1.66.4-2.17l1.83-2.6,6.11-8.42c.37-.21.7-.82.76-1.38l2.92-4.69,1.83-2.94,3.72-5.83,2.18-3.42,1.42-2.17,4.69-6.83c.15-.21.61-.67.75-.8l.49.11c.58.13-.52,1.08.94,4.33l.78,1.73c.92.32,2.96,2.52,2.76,3.49l-.42,2.09-.88-.68Z" fill="#2555a3"/>
  <path d="M116.53,96.54c.68,0,2.05.08,2.82.25,7.61,1.75,7.83,2.3,14.4,6.18.34.2.95.33,1.37.4-.2,1.92,1.75,3.59,2.87,3.74l1.98,2.47c3.43,4.28,7.68,11.38,9.04,17.2-1.71-.42-2,1.37-4.09.37l-2.07-.99c-1.79-.86-.98-4.01-1.66-4.38-2.52-1.37-3.27-.62-4.35-4.24l-1.86-2.48c-1.46-1.93-2.72-1.94-4.51-6.12-.34-.8-1.31-2.19-1.92-2.23l-1.93-.11c-.96-1.43-2.35-2.32-3.7-2.03-.95.21-3.58.76-4.36.19l-3.45-2.51c-.87-.63-.9-2.48-.2-4.13l.6-1.41c.26.01.79-.16,1.05-.16Z" fill="#204c9c"/>
  <path d="M143.02,37.86c-.22.04-.66.04-.9.05-.06-.11-.47-.5-.64-.44l-1.43.47-.35.37-1.56.06c-.12-.2-.15-.35-.26-.34l-.58.1-1.62.28-.29.36-1.6.05-2.75-.04-.29.44-1.26.03h-2.34c-.17,0-.73.41-.72.45l-5.28.49-2.66.2-5.31.36-2.98.24-3.32.28-5.73.48-5.85.34-2.06-.12c-.24-.01-.91.37-1.01.52l-3.5.11c-.38.01-.94.14-1.15.33l-4.53.37c.03-.06-.4-.56-.52-.4-.09.11-.2.34-.25.45l-4.48.17c-.38.01-.94.14-1.16.32l-2.95.15c-.32.02-.76,0-.96-.03l-1.39-.21-.34.55-2.58.1s-2.16-.49-2.03.31l-2.62.03-1.99.03c-.17,0-.72-.47-.71-.51l.37.02.66-.46h1.66l2.57-.05c.2,0,.85-.29,1.09-.38l.32-.36.98-.05c.16.23.68-.04,1.03-.12l1.62-.39h1.75s.28-.46.28-.46l10.13-1.34,8.31-1.1,2.43-.36,3.66-.49,3.66-.46,3.99-.46c.78-.09,1.68-.12,2.31-.07l1.73.16.32-.53c.58-.04,1.38-.12,1.93-.08l1.73.14.3-.5,1.95-.1c.29-.02.83.09,1.38.15l.33-.55,2.56-.35c-.03.06.44.63.53.43l.24-.52,2.5-.12c.4-.02.94-.12,1.14-.36l1.9-.34c-.03.06.42.61.53.42.08-.13.18-.4.23-.52l1.84-.11c.12,0,.4.03.56.03.13,0,.17-.17.25-.38l1.61-.09.38-.33,1.53-.13c.22-.02.63.04,1.06.07l.09-.73,1.22-.11c.21-.02.65-.28.72-.37.16,0,.47-.03.63-.07.28-.07.84-.29,1.03-.38l.95-.09c.29-.03.9-.29,1.04-.44l.61-.02c.12,0,.32-.25.35-.34l.98-.11c.2-.02.63-.3.7-.39l.62-.07.66-.44.33-.02c.35-.1.84-.32,1.04-.5l.33-.02.45-.05c.1-.01.13-.18.21-.4l.33-.02.64-.41.33.03,1.08.31-1.12,1.39-1.47,1.78c-.73.89-1.07,2.27-1.16,3.96l-1.71.82-.31.4Z" fill="#2555a3"/>
  <path d="M102.21,47.46l.69.05c.77,3.43,2.98,2.61,3.3,4.93.45,3.18,1.97,1.72,1.74,3.73l-4.38.05h-1.67c-.18.02-.44.79-.38.86-.22-.01-.64.01-.88.03l-.37-.46-3.03.02c-.35,0-1.15.57-1.31.81-.7-.03-1.55.05-2.26.08.02-.1-.83-.56-1.11-.52l-2.91.39-.38.57h-1.58s-.38-.47-.38-.47l-2.61.09c-.27,0-1,.67-1.05.82l-2.6.02c.14.03-.61-.56-.78-.53l-2.62.48c-.25.05-.93.39-1,.46-.36-.01-.87.02-1.25.04l-.33-.43-3.37.02c.03-.35-.11-1.11-.25-1.45l-1-2.39-.46-2.58,2.35-.52,2.6-.52,2.4-.43,3.31-.5c1.01-.15,2.08-.36,2.96-.36l2.74.02.3-.48.61-.02,2.62.05c.11,0,.51-.57.41-.5l.33-.02,2.65.09.35-.51.93-.02c.8-.02,1.75,0,2.68-.11l3.02-.34c.54-.06,1.08-.22,1.34-.51l.6.02Z" fill="#2d64ae"/>
  <path d="M179.65,243.6c-1.24-1.4-3.37-.99-4.16,1.1-.46,1.23-.49,3.11-.5,4.53l-.08,9.37-4.97.07c-.26,0-.67-.8-.67-1.11v-21.07s5.42-.11,5.42-.11l.33,2.43c2.83-3.94,8.01-3.71,10.17.76.32.67.91,2.45.92,3.33l.05,15.13c0,.39-1.01.74-1.3.73l-4.3-.2-.03-12.52-.89-2.43Z" fill="#2c3261"/>
  <path d="M162.47,257.73c-2.63,1.71-6.92,1.65-9.66-.29l-1.52-1.81c-1.77-2.1-2.95-7.07-2.31-10.05.5-3.72,2.01-6.46,4.46-8.12,4-2.71,9.14-1.62,12,3.33,2.88,5.88,1.64,13.92-2.97,16.94ZM161.19,248.85c.2-1.47-.08-3.71-.72-4.84-.88-1.56-2.71-2.17-3.92-1.25-1.93,1.46-2.29,4.2-1.76,6.73.49,2.32,1.83,3.44,3.34,3.32,1.41-.11,2.71-1.36,3.06-3.96Z" fill="#2c3261"/>
  <path d="M226.04,103.95l-1.93-1.94c-.27-.27-.77-1.16-1.02-1.46l-2.66-3.1c-1.83.79-3.19-3.73-3.45-4.08l-2.8-3.78-1.39-1.87c-.3-.4-.59-1.59-.53-2.15.11-1.08,1.05-1.13-.22-4.61l.88.68.42-2.09c.19-.97-1.84-3.17-2.76-3.49l-.78-1.73c-1.46-3.25-.36-4.2-.94-4.33l-.49-.11c-.24-1.61-.69-3.24-1.2-4.92l-1.12-3.69,7.6.33,1.66,5.62,2.22,7.49,2.02,6.86,2.1,7.19.85,2.94,3.13,10.81.4,1.43Z" fill="#2d64ae"/>
  <path d="M256.23,258.01c-.35.05-.87.26-1.03.48-.08.03-.24.02-.33.01l-1.39-.12-.28.55h-1.28s-.29-.57-.29-.57l-1.39.19c-.08.01-.26.01-.33-.03-.04-.21-.08-.49-.19-.48l-.48.06c-.12,0-.26,0-.33-.04-.05-.23-.07-.49-.19-.48l-.51.02c-4.55-2.23-6.03-10.31-3.59-16.15.89-2.15,2.29-3.44,3.95-4.48,3.28-2.06,8.32-.86,10.4,3.44,1.98,4.08,1.49,4.31,1.48,9.27l-10.8.08c-.44,2.94,2.9,3.96,4.93,2.83,1.74-.97,1.66-2.18,2.55-.88l2.46,3.59-1.16,1.28c-.59.66-1.5,1.21-2.2,1.44ZM249.15,245.41l5.83.07c.19-1.96-.87-3.69-2.51-3.71s-2.69.52-3.32,3.64Z" fill="#2a3b7b"/>
  <path d="M64.05,75.04c.42.15.88.51,1.27.93l2.08,2.24,2.34.64-.73.41c-.17.1-.23.44-.31.76l-1.76.68-8.92,3.75-2.48,1.13-3.48,1.64-5.78,3.11-2.75,1.56c.04-.29-.07-1.43-.36-1.44-5.26-.21-2.73,4.54-8.67,2.63-3.49.08-2.71-2.88-3.21-2.89h-.78c.97-.79,2.1-1.68,3.26-2.31l4.32-2.38c4.09-2.25,8.13-4.26,12.37-5.81l7.33-2.68c2.13-.78,4.23-1.45,6.25-1.97Z" fill="#2a3b7b"/>
  <path d="M220.98,116.38c-.19.69-.73,1.37-1.25,1.76l-.37.46-.65.91-.32.51-.3.85-.4.45-.31.42c-.2.26-.51.75-.65,1.06l-.35.79c-.1.12-.27.35-.32.52l-.29.88c-.09.08-.31.32-.38.49-.75,2.12-2.44,6.2-2.91,8.56l-1.48,7.45c.02.07-.18-.75-.27-1.12s-.66.25-.92.67c-.49.79-.22,1.11-2.11-1.3-.38-.48-.57-2.26-.99-2.69-1.99-2.05-1.61-2.44-2.44-2.38l-.98.06c-.56.04-.44-2.29-.77-2.34l-.75-.11c.65-2.45,1.13-5.09,2.1-7.56l1.64-4.18c.27-.68.65-1.43.93-1.93l.29-.5c.05-.08-.05-.35,0-.42.11-.12.3-.34.38-.5l.64-1.31c2.46-1.24.88.71,3.44-.4,2.2-.95,1.51.69,5.08.62l3.17-.06c.39,0,1.18.22,1.54.34Z" fill="#204c9c"/>
  <path d="M107.35,252.03l1.47,5.42c-1.07.87-2.38,1.55-3.55,1.54l-2.06-.02c-2.81-.02-4.98-3.07-4.98-6.96v-8.95s-2.21-.71-2.21-.71l-.03-4.95c0-1.41,2.2-.04,2.23-1.45l.09-4.9,5.45-.03.54,5.59,2.31-.07c.41-.01,1.12.13,1.58.22l-.03,5.61-3.89.06-.29,3.29c-.15,1.67-.24,4.99.53,6.47.39.74,1.62.41,2.82-.17Z" fill="#2c3261"/>
  <path d="M78.35,104.79l.33.92c-.08.04-.23.04-.33.04-.18,0-.5-.02-.66,0v-.92c.18,0,.5.03.66-.04Z" fill="#2a3b7b"/>
  <path d="M41.8,107.58l.38.34.98.05.29.56,2.41-.07.93.03.34.47h9.68s.4-.46.4-.46l1.54-.03,3.73.06.3-.55c.38-.03.97-.08,1.31-.05l1.72.17.32-.57h.59c.55.02,1.36.03,1.93-.08l2.08-.41,2.37-.46.29-.44.62-.02c.76-.03,1.55-.09,2.4-.2l1.28-.17v.46c-.34.11-.77.28-1.02.46-2.95,2.02-9.63,4.97-13.09,6.05l-4.1,1.28c-1.68.52-2.64.74-4.33.96l-2.69.36-5.33.57c-1.55.16-3.07.22-4.61.14l-3.03-.17c-.05-.04.54-.37.73-.37l6.95-.25-4.63-.5-4.04-1.33c-.61-.49-1.64-1.48-2.2-2.25-.81-1.12-.38-3.29.36-4.56l-.78-1.41.89.47c1.25.66,3.75,1.62,5.03,1.94Z" fill="#2a3b7b"/>
  <path d="M172.55,45.7c-.3,2.13,1.41,1.67,1.99,2.89,2.41,5.04,4.5,2.18,5.38,6.07l.33,1.47-1.49.86-.87.5-4.23-.03-.06-.56c-.02-.17-.6-.38-.71-.33l-1.04.55c-1.14-.04-2.38-.15-3.51-.1l-.06-.59c-.02-.17-.51-.26-.65-.25l-3.09.18-5.83-.1-.38-.5c-.29-1.8,1.2-1.07,1.03-3.06.02-1.94.04-3.4.16-5.02l.19-2.54,8.59.27,4.27.29Z" fill="#2db5dc"/>
  <path d="M231.59,121.41c0,.14-.02.31.03.37l.33.44c0,.16-.05.37.01.46l.36.51.28.89c.05.16.24.36.33.44v.46c.11.32.26.72.38.97.29.59.77,1.62,1.04,2.24l.26.51,1.25,2.38,2.08,3.95,1.16,2.1c.64,1.15,1.41,2.37,2.16,3.47l2.91-.04c.16,0,.73.43.72.48l-1.1.23c-.17,2.83-5.62,3.93-6.9,3.86.01-.74-.23-1.56-.62-2.16l-3.48-5.33c-.48-.73-1.05-1.69-1.48-2.48l-2.14-3.93c-.42-.77-.84-1.5-1.21-2.1l-.3-.46v-.42s-.64-.97-.64-.97c-.13-.39-.34-1.02-.53-1.5l-1.19-3.02-.35-.51v-.46c-.01-.13-.3-.4-.34-.45l-.63-2.24c-.05-.18-.31-.49-.37-.52-.07-.22-.16-.7-.24-.91,2.66.02.17,1.23,5.17,1l1.17,1.42,1.4,1.05.42.32Z" fill="#204c9c"/>
  <path d="M88.7,258.69l-4.35.06c-.15,0-.56-.1-.66-.17-.15-.1-.22-.71-.22-1.03v-21.11s5.38.02,5.38.02l.36,2.45c1.79-1.87,3.23-3.1,5.32-2.87l.04,6.39c.01,1.94-2.77-.46-4.71,2.96-.22.38-.54,1.65-.54,2.13v9.94c0,.29-.42,1.23-.62,1.23Z" fill="#2c3261"/>
  <path d="M155.97,107.67l-.78-.15c-.29-.06-.75-5.14-1.83-6.46-.81-.99-2.35-.63-3.35-.54l-2.06.18-1.47-5.21c-.09-.33-.55-1.26-.52-1.18l-1.24,1.31.03-.45c-.1-.61-.31-1.67-.49-2.26-.17-.53-1.29-.96-1.65-.68-.72.57-1.98,1.71-2.53,2.41l-2.12,2.73-1.34,1.81c-.16.22-.7.61-.85.68.19-.41.56-1.12.85-1.57l2.35-3.69,1.68-2.69,2.98-4.99-.95-4.31-.24-1.18c.11-.08.46-.33.6-.46l2.08-1.99c.55-.52,1.65-.24,2.71.2l-.13-1.86c.1.09.47.78.56,1.15l.78,3.24,2.44,8.99,1.43,5.42,2.17,8.42.87,3.14Z" fill="#223f88"/>
  <path d="M124.06,65.4l.05.92-3.58.47-.3-.49-2.39.05-6.65.12-1.97.27-5.36.55h-.57s-1.04,0-1.04,0l-1.99.05-.48-.04c-.11,0-.15.16-.21.36-.71.07-2.09.22-2.91.36l-2.41.42-2.62.46-2.68.47-2.4.42-2.16.38c-.43.08-1.05.27-1.37.27l-.26-.51-1.06.05s.48-.43.64-.47l1.32-.3.18-2.08,1.02-1.99.42-.81c.24-.48-1.58-.02-1.22-.79.88-.14,2.05-.14,3.06-.18l9.84-.41h3.69s9.59.32,9.59.32l3.32.27,3.62.36c2.47.24,4.8.65,6.9,1.49Z" fill="#2db5dc"/>
  <path d="M71.98,147.98l-.7-1.09c-.4.29-1.17.85-1.66,1.28l-2.41,2.11c-.49.42-1.76.43-2.46.43l-13.95-.04-.38.43-4.99-.09c0-.23.03-.33-.05-.37l-.63-.31c-1.15-.57-.4-2.11-3.35-3.22-.84.1-.65-.18.03-.51l1.68-.14c.13-.01.33-.73.32-.74l1.02-.05.36.52,3.02-.24c.36-.03,1.17-.32,1.65-.4l2.64-.47c.21-.04.8-.34.71-.35l.9-.04c.25.28.69.29,1.18.23l2.2-.27c.17-.02.8-.38.7-.38l.9-.04c-.11.04.6.43.79.4l2.6-.46c.18-.03.77-.35.69-.35l1.6-.04,4.56.03c.1,0,.59-.57.47-.48l.7-.91.47,1.17c.94.36,1.61,1.37,1.61,2.91,0,.6-.08,1.2-.2,1.48Z" fill="#2d64ae"/>
  <path d="M165.28,198.75l6.28.06c.14.23.28.26.39.04l.59.03c-.11-.06.4.4.53.4l5.48.14-1.95.48c-2.6.64-2.53-.42-3.81,1.5,1.51,1.86,2.02,1.22,1.77,3.74l-4.93.08-.69-.67-.7.67h-3.59l-.51-.47c-.09-.08-.18.32-.21.47h-.94s-.3-.41-.3-.41h-3.38s-4.67,0-4.67,0l-1.86-.14-.07-.81c-2.25-1.7-3.39-1.19-5.42-3.03l-1.5-1.36-.08-.61,19.58-.09Z" fill="#223f88"/>
  <path d="M72.72,161.28c.42.31,1.27.89,1.77,1.03l4.76,1.37c.36.11,1.09-.01,1.4-.14l.63.15c-.19.45-.15,1.56.11,1.92l1.52,2.07c.14.2.76.37,1.06.48.19.16.4.35.4.35-.23,0-.75.39-.75.53-.08,0-.2,0-.27.02l-.77.16.74.38c.14,1.57,2.24,4.25,2.08,5.05l-1.13,2.31c-.53,1.09-2.66,1.08-3.6.26-1.37-1.2-2.79-2.59-4.05-4-.39-.44-.92-1.81-1.27-2.27l-.12-1.01c-.03-.24-.42-.33-.59-.35-.08-.01-.23.04-.28-.03l-.31-.4-.33-.04c0-.13-.35-.77-.49-.62l-.51.54h-4.31c-.19,0-.58-.09-.77-.13-.24-1.08-.11-2.09.29-3.28l-.31-2.01-5.81-.1c-.18,0-.72-.41-.7-.47l4.65.03h6.14s.08-.38.12-.54l-.04-1.43c.21.02.59.05.76.18Z" fill="#2a3b7b"/>
  <path d="M206.41,29.21l-.46.77c-.2.34-.48,1.4-.53,1.96-.03.29.54,1.03.64,1-.02.17-.52.89-.84,1.04-4.19,2-9.05,3.23-13.57,3.56l-3.46.25-7.28.1h-2.38s-.94,0-.94,0l-16.3-.04-.32.47h-.66v-.92h1.72c.3,0,1.02-.32,1.27-.46h1.33c.84,0,1.76-.23,2.54-.57h2.36c.31-.01.86.09,1.46.17l.32-.44,7.18-.2c.23,0,.71-.18.79-.27l2.25-.1.36-.08h.59s.54,0,.54,0c.13,0,.17-.11.25-.28l2.21-.17c.22-.02.69-.23.8-.31l1.19-.14c.23-.03.69-.22.8-.31.24-.02.66-.03.88-.09l1.74-.43.33-.41,4.04-1.07c2.66-.7,6.86-2.99,9.22-4.83l.52,1.57c.15.45,1.15.25,1.44.23Z" fill="#223f88"/>
  <path d="M114.49,46.18c-.1-.07.39.4.48.4l4.7.03.64,1.71c.5,1.33,1.13,3.56,1.18,5.04.07,1.85-2.79,2.28-3.4,2.3l-5.42.15c-.09,0-.62.53-.49.44l-2.63.47c-.58.1-1.41.35-1.95.37l-2.76.1-.28-.52h3.68s-.29-.51-.29-.51c.23-2.01-1.29-.54-1.74-3.73-.33-2.32-2.53-1.51-3.3-4.93l4,.03.31-.6h.66s4.55.16,4.55.16c.18,0,.67-.96.49-.88l1.57-.03Z" fill="#567ab8"/>
  <path d="M129.05,57.68l.09.81,2.37.06.3-.48c.49.03,1.16.04,1.64.11l.15.99c.34.3.96.8,1.21,1.11l2.63,3.32c1.56,1.96,5.06,5.12,7.09,5.38l1.18.15.89,3.62.43,1.77c.07.29.26.8.35.99v.46s.04.63.04.63c0,.13.11.16.27.26l.02.46.13,1.86c-1.06-.44-2.16-.72-2.71-.2l-2.08,1.99c-.14.13-.49.38-.6.46-.55-1.59-1.03-3.31-1.42-5.02l.18-1.02c.37-.5.85-1.15.89-1.6.07-.79-.58-2.85-1.57-3.46l-3.22-1.98c-2.1-3.35-3.86-2.56-6.36-5.04l-2.44-2.43-2.28-.59-.77-1.37c.16-.15.39-.51.58-.52l.75-.07c.13-.01.07-.51.06-.66h2.19Z" fill="#2a3b7b"/>
  <path d="M64.09,67.25l-.6,1.18c-.42.83-.28,2.47.04,3.5l.28.92c.07.24.38.28.61.33-.15.13-.67.41-.94.47l-2.66.57-1.99.42-2.3.49-2.04.43-2.02.43-7.28,1.7-5.71,1.27-2.95.89-2.37.52-1.91.43c-.11.02-.41-.44-.31-.5l.57-.32,2.33-1.25,4.13-2.06,6.49-2.99,9.72-3.65c1.88-.71,5.18-1.6,6.9-1.96l-.27.66.61-.76c.52-.25,1.14-.54,1.67-.73Z" fill="#567ab8"/>
  <path d="M116.01,258.69l-3.52.08c-.32,0-1.28-.25-1.28-.79v-21.5s5.66-.04,5.66-.04v21.14c0,.33-.49,1.11-.85,1.11Z" fill="#2c3261"/>
  <path d="M84.03,63.55c-.35.76,1.47.31,1.22.79l-.42.81-1.02,1.99-.18,2.08-1.32.3c-.17.04-.67.43-.64.47-1.25.06-2.59.22-3.97.51l-5.95,1.27-2.71.44c-.48.08-1.06.3-1.33.52l-.82.12-2.46.35c-.23-.04-.54-.09-.61-.33l-.28-.92c-.31-1.03-.46-2.68-.04-3.5l.6-1.18c.31-.11.88-.25,1.34-.36l1.99-.44,2.33-.47,2.33-.47,2.27-.45,2.66-.42,3.3-.52,3.7-.59Z" fill="#069ad5"/>
  <rect x="216.67" y="236.41" width="5.68" height="22.2" fill="#2a3b7b"/>
  <path d="M61.09,163.04c-.02.06.52.47.7.47l5.81.1.31,2.01c-.4,1.2-.53,2.2-.29,3.28l-5.53.13h-3.71s-.3.42-.3.42h-.94c-.1-.17-.3-.18-.39-.01l-2.63-.36-.8-.62c-.16-.12-.52.48-.54.61h-2.29s-.3-.5-.3-.5h-2.71s-3.32,0-3.32,0l.3-.46,2.36-.08-.43-3.26-1.33-.33c-.27-.07-.76-.34-.92-.49.1.01.26.03.35.03h6.37s.28-.5.28-.5h.33s7.54.07,7.54.07c.19,0,.82-.51.79-.54l1.28.02Z" fill="#223f88"/>
  <path d="M70.01,52.1l.46,2.58,1,2.39c.14.33.28,1.1.25,1.45l-.08.79c-.54-.03-1.31.04-1.86.08,0,0-.04-.17-.11-.53l-3.2.44c-.17.02-.89.61-.75.56-.99-.01-2.12.16-3.28.26l-3.88.36-3.73.22c1.01-1.97-.3-2.39-.06-5.73.42-.2,1.09-.44,1.68-.55l4.66-.88,5.62-1.02,3.29-.42Z" fill="#2555a3"/>
  <path d="M41.21,57.63l.99,3.63,2.36-.02.33.52s-.37.22-.49.23l-4.21.52-3.31.38-5.66.62-7.73,1.06-4.99.86c-1.08.19-2.18.34-3.16.45l-.69.08h-.66s-.31.29-.31.29l-.33.02h-1.07s-.3.4-.3.4h-1.25s-.03-.74-.03-.74c.07-.03.21-.04.3-.05l.66-.46h.33s1.04-.51,1.04-.51l7.44-2.4,7.77-2.17,5.31-1.36,2.65-.57c.92-.2,1.82-.3,2.64-.38-.02.07.4.67.54.52l.49-.55c.28-.3.94-.34,1.35-.39Z" fill="#223f88"/>
  <path d="M102.21,94.26c-.11-.06.56-.88.8-.88l4.98-.04-.75-2.99,4.01-.35-1.71-.39-2.11.03-7.68.1c-.09,0-.7-.57-.54-.45l3.96-.21c.9-.05,1.76-.12,2.7-.09l5.52.2,8.95.4,4.52.3c.5.03,1.29.58,1.57,1.06.24.41.35,1.82.17,2.33-.43,1.15-1.65,1.72-2.57,1.6-2.1-.27-4.1-.55-6.2-.57l-9.31-.09h-3.31s-3.02.04-3.02.04Z" fill="#2555a3"/>
  <path d="M43.43,145.73s-.19.73-.32.74l-1.68.14c-.67.33-.87.61-.03.51,2.95,1.11,2.2,2.65,3.35,3.22l.63.31c.08.04.04.14.05.37l-2.32.07-7.42.06-1.27-.47h-10.02s-1.28-.48-1.28-.48c-2.06-.76-5.42.17-7.72-.14l-3.14-.42c.15-.14.61-.58.59-.56,2.11-.19,3.77-.4,5.75-.7l2.65-.4,2.65-.31,2.92-.34,2.07-.23,3.3-.33,3.63-.33,2.03-.19,5.56-.5Z" fill="#567ab8"/>
  <path d="M141.02,76.41l-.32-1.42c-.14-.59-.36-1.37-.62-1.84s-.99-1.19-1.44-1.3l-3.6-.85c-4.15-.97-7.41-.65-9.89-4.67l-.6-.98-.19-1.26c-.24-1.56.28-4.4,1.12-5.18l.77,1.37,2.28.59,2.44,2.43c2.49,2.48,4.25,1.69,6.36,5.04l3.22,1.98c.99.61,1.64,2.66,1.57,3.46-.04.45-.51,1.1-.89,1.6l-.18,1.02Z" fill="#2a376e"/>
  <path d="M244.94,141.03c2,0,5.03,4.92,4.65,7.78l-.26,2.64c-.98.46-2.55.9-3.59.52l-3.83-1.4c-2.1.43-4.76-.53-5.63-3l.02-.63c.17-.59.41-1.28.64-1.83,1.28.07,6.73-1.03,6.9-3.86l1.1-.23Z" fill="#1e4494"/>
  <path d="M143.02,37.86l.31-.4,1.71-.82c.09-1.7.42-3.08,1.16-3.96l1.47-1.78,1.12-1.39-1.08-.31c.11-.12.53-.37.89-.58l6.06-3.55c1.17-.69,2.18-1.25,3.44-.68,1.99,4.62-4.42,9.85-7.01,11.13-1.52.75-3.09,1.47-4.7,1.75l-3.35.58Z" fill="#2d64ae"/>
  <path d="M249.59,148.81c.43,1.67-.19,5.39-1.64,7.43-.45.63-1.29,1.71-1.79,1.97-3.18,1.72-4.69,1.16-7.44-.81-2.36-1.69-3.25-7.17-2.76-9.83h.32c.87,2.47,3.53,3.43,5.63,3l3.83,1.4c1.04.38,2.61-.06,3.59-.52l.26-2.64Z" fill="#2a3b7b"/>
  <path d="M218.06,36.53c.11.24.34.56.6.85l2.1,2.39h1.58s-.28.39-.28.39l-2.13.6-3.22.82c-1.15.29-2.76.43-3.62.47-.3.01-.9.24-1.08.38l-2.93.15c-.21.01-.55-.07-1.07-.16l-.28.49-9.04.11-8.49-.13-.36-.29h-1.75c-.25-.25-.55-.54-.52-.51,1.07-.57,3.9-.86,4.57-.89l5.45-.23c3.83-.16,9.99-1.05,13.84-2.15,1.79-.51,3.48-1.15,5.24-1.78l1.4-.5Z" fill="#2d64ae"/>
  <path d="M102.24,67.28c.04.14.36.59.5.47l.54-.48h.57c0,.18.44.74.66.79l1.61.36-.27,1.06c-.14.03-.42.01-.58.01-.2-1.19-2.29.53-1.75.46h-.57s-.27-.38-.27-.38c-.08-.11-.5.11-.59.21l-.56.62c-.25,0-.64,0-.9.02-.07-.08-.42-.27-.57-.24l-1.55.26c-.29.05-.9.64-.96.91-3.94.82-7.8,2.24-11.93,3.12l-2.63.56-1.01-.61c-.48-.29-3.04-1.69-2.12-2.91l-.57-.24.97-.38h.72c.14.21.52.32,1.04.38l-.71-.37v-.46h1.66c.32,0,.94-.2,1.37-.27l2.16-.38,2.4-.42,2.68-.47,2.62-.46,2.41-.42c.82-.14,2.2-.3,2.91-.36.2-.02.53-.2.69-.32l1.99-.05Z" fill="#1e4494"/>
  <path d="M118.59,283.21l-.17-5.21c-.73,1.06-1.14,1.76-1.7,3.05-.26.6-1.47.54-1.73-.09l-1.39-3.39-.11,4.44c-.04,1.55-2.59,1.63-2.59.55l-.05-10.92c.78-.3,1.79-.39,2.65-.34l2.12,5.39c.27.03.89-.66,1.05-1.06l1.76-4.41,2.35.21v11.65s-2.21.12-2.21.12Z" fill="#2c3261"/>
  <path d="M154.64,66.69h-.88c-3.51-.03-3.64-.27-7.76-.19-1.54.03-3.16-2.28-3.49-4.01l-.46-2.4,1.01-.7c.57-.04,1.26-.06,1.98-.04l7.35.18c.96.02,2.5.49,3.04,1.41,1.26,2.14.54,4.6-.79,5.76Z" fill="#1e4494"/>
  <path d="M79.32,71.26l.57.24c-.92,1.21,1.64,2.62,2.12,2.91l1.01.61-7.62,2.68-4.8,1.63-1.87.68c.08-.32.13-.66.31-.76l.73-.41-2.34-.64-2.08-2.24c-.39-.42-.85-.77-1.27-.93.15-.14.71-.44.95-.48l2.36-.46c.33-.06.89-.3,1.09-.47.26,0,.71,0,.94-.07,2.46-.74,7.22-1.96,9.92-2.29Z" fill="#223f88"/>
  <path d="M198.84,283.35c-.72-.09-1.59-.56-1.88-1.07l-1.38-2.42-1.3-2.28-.35,3.47-.22,2.04-1.99.08c-.05-.35-.18-1.35-.18-1.74l.03-4.63v-5.3s2.07-.21,2.07-.21l1.39,2.51,1.31,2.28c.12.21.82.52.83.25l.09-4.1c0-.23.44-1,.6-.99l1.87.1v10.84c0,.51-.63,1.22-.89,1.18Z" fill="#2c3261"/>
  <path d="M230.32,28.71c.01.39.69.47,1.01.48,3.6,2.64-5.24,9.38-6.95,9.61l-.72.49-.33.02-.45.05c-.1,0-.13.19-.21.41h-.33s-1.58.02-1.58.02l-2.1-2.39c-.26-.29-.49-.61-.6-.85.07-.03.22-.05.29-.07l.36-.46c.12.01.27.06.33-.02l.33-.44c.79-.35,2.2-1.7,2.63-2.69l.32-.48.07-.88h2.28c.27-.01.75-.32.98-.51.07.01.79,0,1-.09l2.96-1.4.16-.79h.54Z" fill="#2555a3"/>
  <path d="M77.35,180.05c.3,0,.98.3,1.25.52.14.71-.03,2.39-.31,2.97l-1.3,2.67,2.05.22c.27.03.87.35.99.5l-4.07-.29-4.94-.4c-1.01-.08-2.07-.28-2.93-.28v-.44c-.18-.29-.26-.3-.38.02l-.93-.09.13-1.68.2-2.65-2.1-.62-.29-.47,12.61.02Z" fill="#2a3b7b"/>
  <path d="M135.7,58.51l.03.71c0,.19.57.28.74.23s.36-.76.33-.88c.49.03,1.23.12,1.6.37-.48-.34,1.08,1.5,2.02.04l1.94.05c.15,0,.69.33.69.35l-1.01.7.46,2.4c.34,1.74,1.95,4.04,3.49,4.01,4.12-.08,4.25.16,7.76.18h.88c-.71.63-1.55,1-2.57,1.12l-3.06.37c-.62.08-2.99.54-3.3.95l-1.18-.15c-2.04-.26-5.54-3.41-7.09-5.38l-2.63-3.32c-.25-.31-.87-.81-1.21-1.11l-.15-.99,2.26.33Z" fill="#223f88"/>
  <path d="M44.16,163.95c.16.15.65.43.92.49l1.33.33.43,3.26-2.36.08-.3.46c-.17,0-.48.08-.66.12l-1.95-.06-.38-.5-9.22-.07c-.38,0-1.31-.44-1.71-.55l-.41.63-2.89-.05-.29-.37-3.11-.26c.88-1.3,1.63-1.18,2.36-1.43l1.13-.39,2.26-.32.33-.41.55-.02c.31.46.93.24,1.53.2l5.16-.32,1.67-.33,3.6.02c.21,0,.78-.47.78-.52h1.26Z" fill="#204c9c"/>
  <path d="M141.27,283.04l-2.72.16-1.49-3.25-1.3.08-.12,3.13-2.22-.14v-11.71s4.03-.04,4.03-.04c1.11,0,2.44.77,3.09,1.99,1.73,3.3-1.44,5.51-.74,6.76l1.46,3.02ZM138.58,276.73c-.04-1.37-.12-1.81-.42-2.71h-2.45s.06,2.83.06,2.83l2.81-.13Z" fill="#2a376e"/>
  <path d="M54.77,54.97c-.24,3.35,1.07,3.76.06,5.73-.36.02-.92.1-1.31.15l-.09-.58c-.9.05-1.79.27-2.32.97-.79-.02-2.31.22-3.26.29l-2.96.24-.33-.52-2.36.02-.99-3.63,1.3-.16.19.6c.05.16.47-.08.48-.25l.03-.66c.25-.13.92-.45,1.23-.49l2.99-.44c.31-.05.91-.28,1.08-.42l.9-.02.7.51c.12.08.71-.1.72-.28l.04-.63,1.53-.06.86.48c.17.1.26-.78.26-.89l1.25.06Z" fill="#1e4494"/>
  <path d="M149.52,281.64c-1.96,3.01-4.75,1.77-6.97.03l1.08-2.05c1.59.65,2.35,1.59,3.77.54.12-.09-.15-.73-.29-.8l-2.97-1.41c-.58-.28-1.35-2.12-1.33-3,.04-1.93,1.41-3.62,2.77-3.79,1.45-.18,2.64.29,4.12,1.19-.3.79-.78,1.86-1.03,2.23l-2.55-.77c-.13-.04-.83.39-.79.57l.2.86,3.35,1.48c1.25.55,1.43,3.7.64,4.91Z" fill="#2a376e"/>
  <path d="M187,281.1l-3.58.34c-.15.45-.44,1.6-.68,1.61l-2.2.04,1.54-5.2,2.04-6.46,2.56-.16.64,2.53.82,2.46,1.89,6.8-2.2.18-.83-2.13ZM186.33,278.44l-1.02-3.63-1.04,3.56,2.06.07Z" fill="#2c3261"/>
  <path d="M125.66,281.14c-.3,0-.73,1.4-.84,1.91l-2.52.04,1.54-5.01,1.03-3.14,1.2-3.67,2.24.07,3.55,11.62c-.6.2-1.76.33-2.23.02-.33-.22-.75-1.8-1.12-1.8l-2.84-.02ZM128.21,278.61l-1.11-3.42-1,3.29,2.11.12Z" fill="#2c3261"/>
  <path d="M144.72,95.61l-2.76,4.43c-1.13,1.82-2.22,3.51-3.22,5.23l-.34.49c-.06.08-.2.1-.33.14-.82.32-.86-2.65-2.7-2.49.07-1.03.17-2.09.3-3.12.02-.12.06-.34.1-.44.15-.06.69-.46.85-.68l1.34-1.81,2.12-2.73c.55-.7,1.81-1.84,2.53-2.41.36-.29,1.48.14,1.65.68.19.59.4,1.65.49,2.26l-.03.45Z" fill="#204c9c"/>
  <path d="M132.45,84.11c.92-1.82,1.74-3,.37-5.04l-.39-.59c2.48.53,5.05,1.32,7.13,3.62.77.86.84,3.12.32,4.13-1.59,3.09-4.94,3.8-6.23,2.8-.72-.55,1.12-3.37-.19-4.25l-1-.67Z" fill="#49bed8"/>
  <path d="M158.09,278.54l-2.72.07c-.24,0-.8.28-.98.4-.24.17,0,1.38.3,1.38l3.9.1c.08.74-.03,2.17-.31,2.66l-4.94.16c-.32.01-1.11-.33-1.45-.49l-.04-10.25c0-.42.43-1.29.77-1.3l5.74-.04.03,2.66-3.31.14c-.21,0-.66.51-.78.71-.16.27.45,1.13.7,1.14,1.46.08,3.38-.44,3.21,1.3l-.13,1.34ZM158.39,282.73l-.13-1.85c-4.76.19-2.22-.06-5.2,1.45l-.75.38,6.08.03Z" fill="#2a376e"/>
  <path d="M61.05,180.09c.09.15.55.55.78.52-.49,1.35-1.07,2.72-1.72,3.93-1.58.07-3.25.29-4.96-.05l-2.02-.4c-.24-.05-1.06.39-1.05.48h-1.25s-.34-.33-.34-.33l-1.98-.52c-.27-.07-1.08.28-1.08.41l-2.73-.17-.47-.41-1.01-.44c-.11-.05.02-.36.06-.58.14-.02.4-.1.55-.15l1,.5c.12.06.7-.15.71-.33l.03-.63.88-.03c.13.27.91.49,1.14.23l.6-.67c.25.01.65,0,.92,0,.23.34,1.13.52,1.45.21l.62-.61c.31.03.9-.03,1.25-.06-.41.47,1.95.87,2.04-.38l1.94-.07c.77.75,2,.51,2.7-.39l1.94-.06Z" fill="#1e4494"/>
  <path d="M222.09,232.22c-1.35,2.1-3.69,1.95-5.06.1-.77-1.05-.87-3.4-.33-4.63.79-1.78,2.47-2.86,3.86-1.98.84.53,1.6,1.45,1.87,2.26.36,1.08.29,3.27-.34,4.25Z" fill="#2a3b7b"/>
  <path d="M117.02,231.56c-1.17,2.41-3.22,2.65-5.01,1.31-.33-.25-.88-1.08-.98-1.56-.53-2.48.25-4.71,2.03-5.59.71-.35,1.75-.23,2.41.22,1.61,1.1,2.16,3.07,1.54,5.62Z" fill="#2c3261"/>
  <path d="M171.61,280.54l.11,2.56-3.47.12c-.84.03-1.67-.05-2.58-.12l-.02-11.71,2.43-.09.04,7.88c0,.54.7,1.32,1.07,1.32l2.43.04Z" fill="#2a376e"/>
  <polygon points="123.14 204.8 152.78 204.65 154.64 204.79 159.31 204.8 159.31 205.26 146.41 205.34 144.67 205.34 135.79 205.33 133.96 205.72 105.22 205.7 103.83 205.26 100.55 205.2 100.92 204.79 123.14 204.8" fill="#485f9d"/>
  <path d="M176.47,280.4l2.17.06c.4.01.95.37,1.17.71s-.02,1.94-.37,1.95l-5.82.08-.06-11.66,2.35-.2.03,7.63c0,.26.38,1.42.54,1.43Z" fill="#2a376e"/>
  <path d="M170.88,13.64c1.34,4.97-1.29,10.83-4.25,11.96-.28-.28-.75-1.31-.73-1.84l.18-3.95c3.8-2.33,2.66-5.37,4.8-6.16Z" fill="#2a3b7b"/>
  <path d="M71.98,147.98v3.47s-1.48.26-1.48.26l.37,1.63c.1.46-.03,1.5-.19,1.85-.06-.08-.34-.66-.4-.88l-.57-2.29c-.91-.25-1.99-.45-3.02-.45l-15.4.03c-.32,0-.91-.43-.86-.51l.38-.43,13.95.04c.7,0,1.98,0,2.46-.43l2.41-2.11c.49-.43,1.26-1,1.66-1.28l.7,1.09Z" fill="#567ab8"/>
  <path d="M95.63,89.76l2.63-.06c-.23,1.64-2.01.54-4.25,1.04l-2.35.52c-.5.11-.44,2.4.03,2.66l1.47.8c.51.28.74,1.98.66,2.73-.05-.06-.26-.39-.34-.53l-.93-1.79-2.84.22c-.67.05-1.87-.13-2.46-.52-.38-.25-.83-1.7-.75-2.24.14-.91,1.12-2.17,1.71-2.23l2.71-.25,4.68-.35Z" fill="#2a3b7b"/>
  <path d="M79.3,154.38c.05.29.28.85.35.93v.84c-.19.24-.3,1.22-.2,1.69l.78,3.64.41,2.05c-.31.13-1.04.25-1.4.14l-4.76-1.37c-.51-.15-1.35-.72-1.77-1.03-.01-.25-.16-.99-.36-1.07l-.58-.22-.02-1.04.89-.47,2.31,1.22,2.52.37c1.07-2.59,1.4-2.43.84-5.36l.97-.33Z" fill="#223f88"/>
  <path d="M29.61,164.9l-.33.41-2.26.32-1.13.39c-.73.25-1.47.13-2.36,1.43l3.11.26.29.37h-1.99s-7.96-.48-7.96-.48l-.02-.42-3.33.11-4.02-.13.04-.9c1.19-.13,3.54-.05,4.9-.18l5.05-.49,3.86-.33,4.14-.33,2-.04Z" fill="#2d64ae"/>
  <path d="M163.13,283.12l-2.41.02-.04-2.2-.04-9.4c.76-.16,1.64-.2,2.52-.14l.06,9.09c0,.83-.04,1.59-.08,2.62Z" fill="#2a376e"/>
  <polygon points="58.15 119.96 58.77 119.49 59.02 120.62 58.15 119.96" fill="#223f88"/>
  <path d="M81.62,107.27c-.12.53-.62,1.16-1.09,1.46l-2.3,1.46-2,1.22c-1.47.9-3.04,1.7-4.33,2.89l-1.38,1.27c-1.48,1.36-3.05-.28-6.3,3.08l-1.08.75c-2.22,1.55-1.56-.6-3.56.57l-.48-.47h.33c.24-.1.58-.28.8-.39l4.16-2.22,5.58-2.89,4.43-2.56,6.53-3.85c.18-.11.54-.26.69-.31Z" fill="#223f88"/>
  <path d="M57.75,120.33l.41.49-1.05.05v-.46c.16-.05.46-.07.64-.09Z" fill="#223f88"/>
  <path d="M170.88,13.64c-2.13.79-1,3.83-4.8,6.16l-.18,3.95c-.02.53.45,1.56.73,1.84-.17.44-.37.63-.53.6l-.71-.13c.12-6.69.86-7.57,1.38-14.38.05-.64.34-1.57.66-1.84.91-.78,2.47.16,2.88,1.67l.57,2.12Z" fill="#2d64ae"/>
  <path d="M206.05,32.94c-.1.04-.66-.7-.64-1,.05-.57.33-1.62.53-1.96l.46-.77c.86-.85,1.13-2.26.87-3.78l4.09-3.06-.48,3.03c-.51,3.27-2.7,7.07-4.84,7.54Z" fill="#2a3b7b"/>
  <path d="M120.53,66.78l-2.07.3-2.62.51-2.03.4-1.97.38-3,.55-2.97.56.27-1.06-1.61-.36c-.22-.05-.66-.6-.66-.77l5.36-.55,1.97-.27,6.65-.12,2.39-.05.3.49Z" fill="#223f88"/>
  <path d="M185.92,20c-.17.88-.79,1.69-1.44,1.83l-1.21-.52c-.34-.16-1.18-.59-1.49-.26-.58.63-1.28,2.37-1.4,3.26l-.18,1.38c-.04.27.67.34.77.35l.25.27.97.9c.51-.33.29-.19-.06.04l-1.45.69-2.68,1.25c-.08-.09-.45-.52-.42-.48.15-.37.42-1.07.62-1.35l1.34-1.85c.48-3.69,1.86-6.88,4.63-7.43,1-.2,1.63.98,1.75,1.92Z" fill="#069ad5"/>
  <path d="M159.95,35.57c.04.89,2.31.46,2.88.34l2.29-.48c.85-.18,1.73-.31,2.51-.32l-.29.46-1.83.16,1.66.67c-.78.35-1.7.57-2.54.57l.36-.89-1.53-.09-.16.98c-.25.14-.97.46-1.27.46h-1.72c-.67,0-1.49.04-2.26.15l-2.45.34c-.28.04-.84.29-.94.43-.14.16-.68.43-.92.42l-1.87-.08-.53-.61c3.86.06,3.28-1.31,4.43-1.62l2.85-.76c.46-.12,1.03-.15,1.34-.1Z" fill="#b9d0eb"/>
  <path d="M178.2,27.35c-.21.28-.47.98-.62,1.35l-2.53,1.75c-.79.55-2.13.74-3.07,1.12l-1.97.81c-.18.08-.57-.06-.76-.05.08-.26.38-.65.59-.8l4.54-3.07c1.23-.83,2.56-1.25,3.83-1.11Z" fill="#b9d0eb"/>
  <path d="M170,32.39l.22,2.23c-.23.01-.67.06-.93.1-.31.04-.89.24-1.05.38h-.61c-.78.02-1.66.15-2.51.33l-2.29.48c-.56.12-2.84.55-2.88-.34.58-.07,1.35-.19,1.99-.44l3.63-1.43,2.01-.86c.24-.1.76.02,1.01,0l.48-.03c.1,0,.11-.31.15-.46.19-.01.58.12.76.05Z" fill="#2db5dc"/>
  <path d="M81.67,69.98l1.06-.05.26.51h-1.66c-.29,0-.79.26-1.05.45l-.97.38c-2.7.33-7.46,1.54-9.92,2.29l-.03-.73-1.67-.1c.27-.22.85-.44,1.33-.52l2.71-.44,5.95-1.27c1.39-.29,2.73-.45,3.97-.51Z" fill="#b9d0eb"/>
  <path d="M153.67,55.82l-30.88-.03c-.17.04.34-.48.59-.48h29.48c.45,0,.71.33.81.51Z" fill="#2db5dc"/>
  <path d="M141.06,44.76l1.01.75.65-.75,7.24.06,1.71.42,2.33-.07-.33.54-18.96-.09c.97-.38,1.71-.39,2.79-.4l.57-.46h2.99Z" fill="#2db5dc"/>
  <path d="M61.06,44.28s.54.51.71.51l1.99-.03c-.02.31.02.99-.16.91-.12-.05-.82-.33-.95-.32l-5.19.47c-1.49.13-2.72.23-4.01.24.68-.37,1.6-.89,2.11-.96l5.52-.81Z" fill="#567ab8"/>
  <path d="M60.11,184.54c-.01.06.49.48.69.5l2.9.23c.91.07,2.35.12,3.1.19l.93.09c.09,0,.26,0,.37-.02v.44s-3.92.04-3.92.04l-1.22-.4-4.4-.11-1.18-.4h-4.52c-.19.01-.79-.45-.77-.5,0-.09.81-.53,1.05-.48l2.02.4c1.71.34,3.38.11,4.96.05Z" fill="#567ab8"/>
  <path d="M77.05,179.48l.3.57-12.61-.02c-.23,0-.76.33-1,.35l-1.92.22c-.23.03-.69-.38-.78-.52.13-.18.71-.5,1.01-.51l15-.1Z" fill="#567ab8"/>
  <path d="M282.43,163.49c.02-.74.02-2.18.08-3.08l.21-2.85.25-3.31c.41-5.55-.26-4.11-.24-6.77l.03-3.72.32.85.19,2.96c.2,3.08.28,6.37,0,9.45l-.29,3.29-.23,2.42-.34.77Z" fill="#2d64ae"/>
  <path d="M41.56,168.63s-.57.42-.74.42l-3.23-.02-1.2-.43-5.76-.04c-.19,0-.8-.38-.79-.43l.41-.63c.4.11,1.33.55,1.71.55l9.22.07.38.5Z" fill="#2d64ae"/>
  <polygon points="177.59 37.9 177.23 38.34 160.97 38.34 161.29 37.86 177.59 37.9" fill="#567ab8"/>
  <path d="M42.9,163.94c0,.05-.57.52-.78.52l-3.6-.02-1.67.33-5.16.32c-.6.04-1.22.26-1.53-.2l.37-.4,4.96-.13,1.72-.36,4.73-.05c.15,0,.66-.51.74-.4s.15.26.22.4Z" fill="#2d64ae"/>
  <path d="M67.74,204.42c.11-.07-.41.37-.5.37l-5.13.04c-.81,0-1.58-.31-2.02-.81l.65-.11,6.69-.05.31.56Z" fill="#485f9d"/>
  <path d="M52.83,144.74c.09.02-.5.32-.71.35l-2.64.47c-.48.09-1.29.37-1.65.4l-3.02.24-.36-.52c.01-.06.56-.49.75-.49l3.19-.05,1.16-.41h3.28Z" fill="#567ab8"/>
  <path d="M57.21,108.5l-.4.46h-9.68s-.34-.47-.34-.47l8.31-.07c.71,0,1.65-.77,2.11.08Z" fill="#567ab8"/>
  <path d="M43.26,182.54c-.04.21-.17.53-.06.58l1.01.44.47.41-1.56-.11-2.56-.2c-.15-.01-.58-.64-.43-.68s.53-.13.71-.15l2.42-.29Z" fill="#567ab8"/>
  <path d="M93.94,98.87c.08,0,.23,0,.33,0-.31,1.23-.79-.56-2.32,1.86-.85,1.35-2.61,2.92-3.29,2.21-.04-.02.26-.62.41-.74l2.67-2.1c.56-.58,1.62-1.17,2.2-1.23Z" fill="#567ab8"/>
  <path d="M59.81,163.01s-.6.55-.79.54l-7.54-.09.28-.37,5.68-.14c.45-.01,1.37-.35,2-.49l.37.54Z" fill="#485f9d"/>
  <path d="M101.62,47.44c-.26.3-.8.45-1.34.51l-3.02.34c-.92.1-1.87.09-2.68.11l.3-.42c.69-.12,1.25-.26,1.75-.31l3.26-.31c.29-.03.91-.27,1.4-.42l.33.49Z" fill="#069ad5"/>
  <path d="M10.68,65.94l.03.73c-.33.22-.98.58-1.37.68l-1.85.47s0-.54.09-.6l.47-.35,2.63-.93Z" fill="#567ab8"/>
  <path d="M106.88,96.12l.29.48h3.07s.29-.48.29-.48h2.65v.46c-.89-.05-1.99.27-2.96.32l-4.39.24-.28-.65c.32-.19.93-.36,1.33-.36Z" fill="#2d64ae"/>
  <path d="M73.38,106.13l-.29.44-2.37.46-2.08.41c-.58.11-1.39.1-1.93.09l.31-.42,1.7-.35,2.32-.47,1.57-.32.54-.11c.11-.02.12.09.23.27Z" fill="#567ab8"/>
  <path d="M82.05,204.85c.08-.07-.38.45-.47.45l-3.2-.14-1.38-.4.31-.43h4.41s.33.52.33.52Z" fill="#485f9d"/>
  <path d="M135.67,100.3c-.13,1.03-.23,2.09-.3,3.12-.06,0-.17-.03-.25-.05-.42-.07-1.03-.19-1.37-.4.08-.37.51-1.31.78-1.57l1.14-1.1Z" fill="#223f88"/>
  <path d="M100.64,57.11c.05.03-.61.54-.78.53l-3.93-.16c.16-.24.96-.81,1.31-.81l3.03-.02.37.46Z" fill="#567ab8"/>
  <path d="M160.31,37.42v.92h-5.64c.09-.13.66-.39.94-.43l2.45-.34c.76-.11,1.58-.16,2.26-.15Z" fill="#567ab8"/>
  <path d="M9.66,166.27l-.04.9-1.08-.02-2.05-.04c-.54-.26-.79-.69-.03-.59l2.24-.14.95-.11Z" fill="#b9d0eb"/>
  <path d="M104.26,96.56c-.25.42-1.14.97-1.59.96l-1.76-.03h-2.32s.58-.44.58-.44l2.74-.34,2.35-.15Z" fill="#2d64ae"/>
  <path d="M112.92,46.21c.18-.07-.31.89-.49.88l-4.55-.16s.47-.27.66-.31l1.75-.37c.78-.16,1.87-.03,2.63-.05Z" fill="#069ad5"/>
  <path d="M100.31,94.31c-.02.05-.56.44-.72.44h-1.99c.01.35.03,1.04.11,1.24l.55,1.47c-.08.03-.64-.17-.7-.4l-.66-2.61c1.06.02,3.4-1.42,3.41-.14Z" fill="#2555a3"/>
  <path d="M184.86,41.55l.66.92-1.03.18-3.28-.62c1.49-.56,2.48-.5,3.65-.47Z" fill="#b9d0eb"/>
  <path d="M93.67,57.57s-.59.51-.79.51l-3.61-.07.38-.57,2.91-.39c.28-.04,1.13.43,1.11.52Z" fill="#567ab8"/>
  <path d="M107.22,46.94l-.31.6-4-.03-.69-.05.28-.36c1.5.26,3.97-1.31,4.73-.16Z" fill="#069ad5"/>
  <path d="M168.34,57.02l-3.48.17-.33-.82,3.09-.18c.14,0,.64.08.65.25l.06.59Z" fill="#49bed8"/>
  <path d="M87.7,58.02c.01.05-.58.52-.76.51l-3.28-.08c.05-.15.78-.81,1.05-.82l2.61-.09.38.47Z" fill="#567ab8"/>
  <path d="M86.05,104.77c.05.2.12.49.11.47l-3.22,1.98c-.27.17-.85.2-1.03-.01.05-.14.6-.86.84-.94l1.56-.52c.13-.04.28-.33.33-.46.02-.03.26,0,.33,0l.33-.46c.1,0,.25.01.33,0l.41-.06Z" fill="#223f88"/>
  <path d="M114.9,76.47c.08.03-.22.86-.4.86h-2.64c-.17,0-.74-.42-.76-.48l.38-.46,3.42.08Z" fill="#49bed8"/>
  <path d="M75.41,58.93c-.09.17-.75.57-1.05.55l-2.73-.17.08-.79,3.37-.02.33.43Z" fill="#567ab8"/>
  <path d="M81.06,58.47s-.59.55-.76.54l-3.63-.13c.07-.07.75-.41,1-.46l2.62-.48c.17-.03.92.56.78.53Z" fill="#567ab8"/>
  <path d="M69.77,59.38c.02.05-.57.52-.76.52l-3.3-.05c-.14.05.58-.54.75-.56l3.2-.44c.08.37.11.53.11.53Z" fill="#567ab8"/>
  <path d="M77.68,104.83v.92l-1.28.17c-.85.11-1.64.17-2.4.2,1.49-.92,1.94-1.25,3.68-1.28Z" fill="#567ab8"/>
  <path d="M78.35,105.75c-.09.21-.11.33-.2.35l-.46.1v-.46c.17-.02.48,0,.66,0Z" fill="#567ab8"/>
  <path d="M67.62,168.9c.19.04.58.13.77.13v.46h-6.3v-.46l5.53-.13Z" fill="#204c9c"/>
  <path d="M58.44,203.99l-.31.43-3.65-.18-1.38-.41c-.31-.99,1.66-.01,2.06,0l3.28.16Z" fill="#485f9d"/>
  <path d="M62.09,169.03v.46c-.33,1.06-1.47-.03-4.01-.04l.3-.43h3.71Z" fill="#485f9d"/>
  <path d="M62.77,107.97l-.3.55-3.73-.06c-.1,0,.51-.34.74-.37l1.82-.28c.58-.09,1.13-.13,1.46.16Z" fill="#567ab8"/>
  <path d="M223.34,30.22c0,.15.02.61.03.6.01,0,.35,0,.82-.02l.49.68h-2.28s-.36-.85-.36-.85c.34-.15.98-.41,1.31-.42Z" fill="#b9d0eb"/>
  <path d="M95.3,42.09c.3.76-3.39,1.32-3.08.41.1-.15.77-.54,1.01-.52l2.06.12Z" fill="#567ab8"/>
  <path d="M62.78,143.83c.08,0-.51.32-.69.35l-2.6.46c-.19.03-.9-.36-.79-.4,0-.04.59-.45.79-.45l3.29.03Z" fill="#567ab8"/>
  <path d="M69.41,143.33c.12-.09-.37.48-.47.48l-4.56-.03.31-.44h4.72Z" fill="#567ab8"/>
  <path d="M50.84,184.57l-2.66.08c-.16,0-.76-.47-.75-.51,0-.13.81-.48,1.08-.41l1.98.52.34.32Z" fill="#567ab8"/>
  <path d="M131.8,58.08l-.3.48-2.37-.06-.09-.81c.96,0,1.9-.08,2.75.4Z" fill="#223f88"/>
  <path d="M57.81,144.28c.1,0-.53.36-.7.38l-2.2.27c-.49.06-.94.05-1.18-.23l.35-.45,3.73.04Z" fill="#567ab8"/>
  <path d="M282.42,140.19c-.84-.81-.97-3.28-1.01-4.67.54.32.96,3.54,1.01,4.67Z" fill="#2d64ae"/>
  <polygon points="70.39 162.61 70.39 163.07 65.74 163.07 66.04 162.6 70.39 162.61" fill="#485f9d"/>
  <polygon points="107.94 56.17 108.24 56.67 104.56 56.68 103.57 56.68 103.57 56.22 107.94 56.17" fill="#069ad5"/>
  <path d="M122.22,76.83l-.34.52-2.04-.06-.08-.82,1.99-.05c.1,0,.5.43.46.41Z" fill="#49bed8"/>
  <path d="M67.73,43.05l-.32.36c-.25.09-.89.38-1.09.38l-2.57.05.28-.43,1.67-.19,2.04-.17Z" fill="#567ab8"/>
  <path d="M59.1,180.15c-.71.9-1.93,1.13-2.7.39l.32-.58,2.39.19Z" fill="#567ab8"/>
  <path d="M52.17,202.53l-.38.47-.59.63c-.48-.05-.84-.12-1.38-.33,1.03-.4,1.61-.6,2.35-.78Z" fill="#485f9d"/>
  <polygon points="80.36 103.92 80.33 104.8 79.6 105.2 78.68 105.71 78.35 104.79 80.36 103.92" fill="#567ab8"/>
  <path d="M100.64,70.41l-.33.41-1.33.21-1.42.29c.06-.27.67-.86.96-.91l1.55-.26c.15-.02.5.16.57.24Z" fill="#223f88"/>
  <path d="M126.87,83.61c-.68-.03-1.57-.17-2.12-.29-.39-.67,2.02-.67,2.06-.29l.06.58Z" fill="#49bed8"/>
  <path d="M44.17,168.57h3.32v.46c-1.34-.01-2.71-.01-3.98-.34.18-.04.5-.12.66-.12Z" fill="#2d64ae"/>
  <path d="M53.52,60.84c-.03.06-.55.43-.73.42l-1.68-.04c.53-.7,1.42-.92,2.32-.97l.09.58Z" fill="#2555a3"/>
  <rect x="68.39" y="169.03" width="3.98" height=".46" fill="#223f88"/>
  <path d="M103.57,56.22v.46c0,.06-.49.48-.65.47l-1.4-.07c-.06-.07.2-.85.38-.85h1.67Z" fill="#567ab8"/>
  <polygon points="185.52 42.46 184.86 41.55 187.31 41.6 186.76 42.59 185.52 42.46" fill="#567ab8"/>
  <polygon points="162.99 205.22 159.31 205.26 159.31 204.8 162.69 204.8 162.99 205.22" fill="#1e4494"/>
  <path d="M54.46,180.62c-.1,1.25-2.45.85-2.04.38.5-.58,1.33-.35,2.04-.38Z" fill="#567ab8"/>
  <polygon points="110.53 96.12 110.24 96.59 107.17 96.59 106.88 96.12 110.53 96.12" fill="#567ab8"/>
  <path d="M45.86,108.46l-2.41.07-.29-.56c.05-.08.47-.34.64-.29l1.72.44.34.34Z" fill="#567ab8"/>
  <path d="M142.12,37.91l-.33.43-2.08-.03.35-.37,1.43-.47c.17-.06.58.33.64.44Z" fill="#2d64ae"/>
  <path d="M51.17,181.05l-.62.61c-.31.31-1.22.13-1.45-.21l.32-.55,1.75.15Z" fill="#567ab8"/>
  <path d="M138.14,38.36l-.34.44-2.41-.04.29-.36,1.62-.28.58-.1c.1-.02.14.14.26.34Z" fill="#2d64ae"/>
  <path d="M45.56,181.93l-.03.63c0,.18-.59.39-.71.33l-1-.5c.09-.89,1.36-.44,1.74-.45Z" fill="#567ab8"/>
  <polygon points="16.99 167.61 13.93 167.66 13.65 167.3 16.97 167.19 16.99 167.61" fill="#b9d0eb"/>
  <polygon points="51.15 163.49 50.87 163.98 47.82 163.98 47.82 163.53 51.15 163.49" fill="#204c9c"/>
  <polygon points="72.04 169.49 71.76 169.97 69.02 169.97 68.73 169.49 72.04 169.49" fill="#485f9d"/>
  <path d="M171.3,36.11l-.32.44c-.6-.08-1.15-.18-1.46-.18l.06-.58c.03-.29,1.65-.5,1.72.31Z" fill="#b9d0eb"/>
  <polygon points="47.82 163.53 47.82 163.98 44.5 163.98 44.8 163.53 47.82 163.53" fill="#2d64ae"/>
  <path d="M116.53,96.54c-.26,0-.79.18-1.05.16l-2.29-.13v-.46h3.05s.29.42.29.42Z" fill="#567ab8"/>
  <path d="M173.66,57.45c-.65,0-1.35.11-1.81-.34l1.04-.55c.11-.06.69.16.71.33l.06.56Z" fill="#49bed8"/>
  <path d="M280.4,131.39l-1-1.39c-.3-.41-.3-1.71-.31-2.28.49.14,1.18,3.04,1.32,3.67Z" fill="#2d64ae"/>
  <polygon points="93.65 48.41 93.3 48.93 90.64 48.84 90.9 48.41 93.65 48.41" fill="#069ad5"/>
  <path d="M129.49,39.25l-.31.49-2.74-.04s.55-.45.72-.45h2.34Z" fill="#2d64ae"/>
  <path d="M90.31,48.85c.09-.07-.31.5-.41.5l-2.62-.05.32-.43,2.71-.02Z" fill="#069ad5"/>
  <path d="M66.12,107.52l-.32.57-1.72-.17.89-.61c.27-.18,1.02-.03,1.15.21Z" fill="#567ab8"/>
  <path d="M75.34,170.95c-.47-.04-1.07.08-1.39.38l-.3-.3c-.09-.09.29-.54.4-.59.12-.06.61-.28.59-.26s-.01-.52-.01-.59c.18.02.57.11.59.35l.12,1.01Z" fill="#485f9d"/>
  <polygon points="98.62 89.28 98.26 89.7 95.63 89.76 95.86 89.2 98.62 89.28" fill="#2555a3"/>
  <path d="M72.71,43.97c-.17.34-.57.9-.86.85-.23-.04-.72-.37-.88-.51l.34-.55,1.39.21Z" fill="#567ab8"/>
  <path d="M68.39,44.41l-.9.63c-.28.2-.98-.03-1.12-.32-.14-.8,2.06-.31,2.03-.31Z" fill="#567ab8"/>
  <polygon points="133.79 38.82 133.49 39.28 130.75 39.22 131.04 38.78 133.79 38.82" fill="#2d64ae"/>
  <path d="M80.33,104.8l.03-.88,1.26-.14c-.43.4-.88.79-1.29,1.01Z" fill="#b9d0eb"/>
  <polygon points="50.49 169.06 47.49 169.03 47.49 168.57 50.2 168.57 50.49 169.06" fill="#204c9c"/>
  <path d="M117.55,36.45l-.33.55c-.55-.07-1.09-.17-1.38-.15.16-.33.56-.93.85-.87.23.05.7.34.86.47Z" fill="#567ab8"/>
  <polygon points="86.67 49.32 86.37 49.8 83.63 49.78 83.92 49.33 86.67 49.32" fill="#069ad5"/>
  <path d="M191.19,33.32l-.33.41-1.74.43.24-.92c.76.05,1.45.18,1.83.08Z" fill="#b9d0eb"/>
  <path d="M105.28,69.49l-.32.52-1.43-.06c-.54.07,1.54-1.65,1.75-.46Z" fill="#223f88"/>
  <path d="M72.72,161.28c-.17-.13-.55-.16-.76-.18l-.18-1.11.58.22c.21.08.35.82.36,1.07Z" fill="#204c9c"/>
  <path d="M48.18,181.46l-.6.67c-.24.26-1.01.04-1.14-.23l.32-.51,1.42.08Z" fill="#567ab8"/>
  <path d="M34.58,103.46c-.13-.14-.37-.56-.42-.77l-.26-1.23c-.06-.3.49-.67.66-.78l.02,2.79Z" fill="#2a3b7b"/>
  <path d="M50.87,55.38l-.04.63c-.01.18-.61.36-.72.28l-.7-.51.33-.5c.52.05.9.1,1.13.1Z" fill="#2555a3"/>
  <path d="M109.93,37.39l-.32.53-1.73-.16.3-.3,1.2-.34c.14-.04.47.18.55.27Z" fill="#567ab8"/>
  <polygon points="37.89 115.8 35.48 115.86 35.18 115.37 37.61 115.36 37.89 115.8" fill="#2a3b7b"/>
  <path d="M53.79,121.8h.66l-.85.66-.59.24s-.18-.36-.22-.44c.12-.19.69-.43,1-.46Z" fill="#223f88"/>
  <polygon points="180.91 37.89 180.62 38.36 178.81 38.36 178.53 37.9 180.91 37.89" fill="#567ab8"/>
  <path d="M53.52,54.91c0,.11-.09.99-.26.89l-.86-.48c.2-.15.78-.35,1.12-.41Z" fill="#2555a3"/>
  <polygon points="113.89 36.95 113.59 37.45 111.86 37.31 112.14 36.98 113.89 36.95" fill="#567ab8"/>
  <path d="M158.31,55.76l.38.5c-.09.14-.42.59-.56.46l-.56-.52.74-.44Z" fill="#49bed8"/>
  <path d="M134.5,33.42l-.09.73c-.43-.03-.84-.09-1.06-.07l.09-.72c.44.03.84.08,1.06.06Z" fill="#567ab8"/>
  <path d="M281.06,133.74l-.67-.23.02-1.66c.3.39.63,1.31.65,1.89Z" fill="#2d64ae"/>
  <path d="M140.43,58.99c-.94,1.46-2.5-.38-2.02-.04l2.02.04Z" fill="#1e4494"/>
  <path d="M77.77,43.53c.07.15-.37,1.02-.57.85l-.59-.52c.22-.18.78-.31,1.16-.32Z" fill="#567ab8"/>
  <path d="M88.72,42.61c.07.15-.37,1.03-.57.85l-.59-.52c.21-.19.78-.32,1.15-.33Z" fill="#567ab8"/>
  <path d="M229.01,113.62s-.63.02-.63-.19l-.03-1.71c.27.37.59,1.34.67,1.9Z" fill="#2d64ae"/>
  <path d="M126.2,77.28l-.58.57c-.2.2-.63-.71-.56-.86.36.02.92.15,1.14.29Z" fill="#49bed8"/>
  <path d="M118.22,83.32l-.55.46c-.14.12-.46-.3-.55-.44.02-.12.39-.76.54-.61l.55.58Z" fill="#49bed8"/>
  <path d="M136.8,58.58c.03.11-.16.83-.33.88s-.73-.04-.74-.23l-.03-.71c.28.04.79.04,1.1.06Z" fill="#2a3b7b"/>
  <path d="M73.4,42.04l-.28.45h-1.75c.05-.83,1.6-.39,2.03-.45Z" fill="#567ab8"/>
  <path d="M102.96,69.95l-.32.49-1.09-.04.56-.62c.09-.1.51-.32.59-.21l.27.38Z" fill="#223f88"/>
  <path d="M124.52,35.53c-.19.23-.74.34-1.14.36-.08-.13.37-1.01.57-.84l.56.48Z" fill="#567ab8"/>
  <polygon points="251.91 258.93 250.49 258.93 250.23 258.56 251.62 258.37 251.91 258.93" fill="#485f9d"/>
  <path d="M69.75,42.88c-.36.09-.87.36-1.03.12,0-.1.35-.75.5-.62l.54.5Z" fill="#567ab8"/>
  <path d="M213.09,42.04l-.56.89c-.11.17-.47-.42-.52-.52.18-.14.78-.36,1.08-.38Z" fill="#b9d0eb"/>
  <path d="M68.46,73.62c-.2.17-.76.41-1.09.47l.56-.91c.1-.17.46.33.53.44Z" fill="#b9d0eb"/>
  <polygon points="254.86 258.51 254.62 258.95 253.19 258.94 253.47 258.39 254.86 258.51" fill="#485f9d"/>
  <path d="M72,162.53c-.04.16-.12.54-.12.54h-1.49s0-.46,0-.46l1.61-.08Z" fill="#567ab8"/>
  <path d="M125.15,66.33c-.28-.01-.78-.05-1.04-.01l-.05-.92.49-.05.6.98Z" fill="#567ab8"/>
  <polygon points="142.72 44.76 142.07 45.5 141.06 44.76 142.72 44.76" fill="#069ad5"/>
  <path d="M228.34,111.33c-.1.03-.55.13-.56-.06l-.02-1.06c.14,0,.54.15.55.4l.03.72Z" fill="#2d64ae"/>
  <path d="M54.13,169.07h-1.34c.02-.14.38-.74.54-.62l.8.62Z" fill="#204c9c"/>
  <path d="M57.11,120.42v.46h-.33l-.66.46h-.33c-.32.09-.82.31-1,.46h-1c-.05,0,.5-.57.65-.61l2.67-.76Z" fill="#567ab8"/>
  <path d="M13.33,66.28s-.24.47-.36.46l-1.01-.07.3-.39h1.07Z" fill="#567ab8"/>
  <path d="M83.03,43.31c-.06.12-.37.67-.47.49-.07-.13-.23-.34-.31-.44.06-.11.16-.34.25-.45.12-.16.55.34.52.4Z" fill="#567ab8"/>
  <polygon points="282.76 142.93 282.39 142.53 282.43 141.02 282.75 141.4 282.76 142.93" fill="#2d64ae"/>
  <path d="M210.79,142.45c.02.15.05.33.04.44l-.82-.25c0-.58.66-.84.78-.19Z" fill="#204c9c"/>
  <polygon points="270.74 169.93 271.13 168.93 271.57 169.84 270.74 169.93" fill="#2555a3"/>
  <path d="M209.08,42.57l-.27.34h-1.09s.28-.5.28-.5c.52.08.86.17,1.07.16Z" fill="#b9d0eb"/>
  <path d="M126.85,57.67c.02.15.07.65-.06.66l-.75.07c-.01-.15-.04-.62.08-.65.18-.03.55-.08.73-.08Z" fill="#223f88"/>
  <path d="M106.92,77.23l-.22.57c-.09.23-.56-.48-.54-.53l.48-.4c.08-.07.21.24.28.36Z" fill="#49bed8"/>
  <path d="M103.32,77.46s-.12.94-.27.81l-.54-.52c.11-.09.57-.27.81-.28Z" fill="#49bed8"/>
  <path d="M34.24,115.34l-1.1.05-.3-.47c.22.02.58,0,1.13,0l.28.42Z" fill="#2a3b7b"/>
  <path d="M129.19,77.79c-.04.07-.49.69-.56.48l-.25-.82h.55c.12,0,.18.15.26.34Z" fill="#49bed8"/>
  <path d="M43.21,57.16l-.03.66c0,.17-.43.4-.48.25l-.19-.6c.09-.18.11-.28.2-.29l.49-.02Z" fill="#223f88"/>
  <path d="M130.85,84.07c-.23,0-.7-.2-.8-.3.02-.06.48-.76.55-.53l.25.83Z" fill="#49bed8"/>
  <path d="M180.88,110.29c-.04.28-.29.92-.48,1.12l-.73.75s-.11-.27-.16-.39c1.27-1.27.31-1.39,1.36-1.48Z" fill="#485f9d"/>
  <polygon points="210.76 152.55 210.2 151.16 210.7 150.65 210.76 152.55" fill="#204c9c"/>
  <path d="M188.24,34.25c-.11.09-.57.28-.8.31l.24-.85c.07-.23.54.48.55.54Z" fill="#b9d0eb"/>
  <path d="M129.83,34.62c-.08.22-.12.38-.25.38-.15,0-.43-.03-.56-.03l.27-.8c.07-.21.49.36.53.44Z" fill="#567ab8"/>
  <path d="M190.1,97.94c.06-.46.42-1.11.76-1.38-.06.56-.38,1.17-.76,1.38Z" fill="#567ab8"/>
  <path d="M120.88,36.01l-.24.52c-.09.2-.56-.37-.53-.43.06-.12.34-.6.47-.49.09.07.22.29.29.4Z" fill="#567ab8"/>
  <path d="M179.27,35.64c-.08.09-.56.26-.79.27l.25-.83c.07-.22.52.5.54.56Z" fill="#b9d0eb"/>
  <polygon points="169.62 205.21 168.24 205.21 168.94 204.54 169.62 205.21" fill="#1e4494"/>
  <path d="M186.25,34.7c-.11.09-.58.3-.8.31l.24-.84c.07-.23.54.47.56.53Z" fill="#b9d0eb"/>
  <path d="M127.18,35.09c-.05.12-.15.39-.23.52-.11.19-.56-.36-.53-.42.06-.11.33-.62.47-.5.09.08.22.28.29.39Z" fill="#567ab8"/>
  <path d="M94.28,98.87c-.1,0-.25,0-.33,0l-.06-.92.84.13-.45.79Z" fill="#2a3b7b"/>
  <path d="M183.25,35.19c-.08.17-.13.29-.25.28l-.54-.02.25-.83c.07-.22.52.5.53.56Z" fill="#b9d0eb"/>
  <path d="M169.29,34.72c-.17.09-.74.3-1.05.38.16-.14.74-.34,1.05-.38Z" fill="#b9d0eb"/>
  <path d="M35.2,99.36c-.45-.41,1.56-2.4,1.98-2.75-.01.09-.07.4-.1.44l-1.88,2.31Z" fill="#2a3b7b"/>
  <path d="M77.68,106.21c-.23.2-.68.38-1.02.46.25-.17.68-.35,1.02-.46Z" fill="#485f9d"/>
  <path d="M168.6,32.38v.46c-.25.02-.77-.1-1.01,0l1.01-.46Z" fill="#b9d0eb"/>
  <path d="M138.1,32.49c-.19.1-.76.32-1.03.38l.5-.51c.1-.1.42.14.54.13Z" fill="#567ab8"/>
  <path d="M140.09,31.96c-.14.14-.76.41-1.04.44.16-.15.73-.38,1.04-.44Z" fill="#567ab8"/>
  <path d="M256.23,258.01c-.26.15-.72.36-1.03.48.16-.22.69-.43,1.03-.48Z" fill="#485f9d"/>
  <path d="M48.51,55.8c-.17.14-.78.38-1.08.42.17-.17.78-.42,1.08-.42Z" fill="#2555a3"/>
  <path d="M73.7,169.11l-.66-.08c-.09-.01-.23,0-.33,0l.51-.54c.13-.14.49.5.49.62Z" fill="#223f88"/>
  <path d="M282.1,165.33c.04-.45.19-1.14.32-1.37-.08.43-.25,1.15-.32,1.37Z" fill="#2d64ae"/>
  <path d="M145.4,30.07c-.2.18-.69.4-1.04.5.19-.19.69-.41,1.04-.5Z" fill="#567ab8"/>
  <path d="M13.01,64.92l-1.04.5c.2-.17.69-.38,1.04-.5Z" fill="#567ab8"/>
  <path d="M231.33,29.18c-.32,0-1-.09-1.01-.48.29,0,.76.29,1.01.48Z" fill="#b9d0eb"/>
  <path d="M39.86,58.02l-.49.55c-.14.15-.57-.45-.54-.52.28-.03.73-.02,1.04-.02Z" fill="#1e4494"/>
  <path d="M11.64,65.43l-.66.46c.04-.19.08-.39.19-.4l.46-.06Z" fill="#567ab8"/>
  <path d="M60.23,119.1c-.21.11-.56.29-.8.4.08-.25.09-.42.21-.41h.59Z" fill="#567ab8"/>
  <path d="M15.33,65.89l-.44.41c-.07.07-.18-.19-.25-.32l.69-.08Z" fill="#567ab8"/>
  <path d="M62.42,67.98l-.61.76.27-.66c.09-.02.23-.07.33-.1Z" fill="#069ad5"/>
  <path d="M140.7,74.99c-.28-.41-.55-1.23-.62-1.84.26.48.49,1.25.62,1.84Z" fill="#485f9d"/>
  <path d="M147.38,75.51c-.09-.19-.28-.7-.35-.99l.35.99Z" fill="#223f88"/>
  <path d="M147.37,29.19l-.64.41c.06-.21.07-.35.18-.36l.46-.05Z" fill="#567ab8"/>
  <path d="M146.39,29.61c-.08.21-.11.39-.21.4l-.45.05.66-.44Z" fill="#567ab8"/>
  <path d="M147.69,76.86c-.16-.1-.27-.13-.27-.26l-.03-.63c.15.08.25.1.26.25l.04.63Z" fill="#223f88"/>
  <path d="M144.03,30.58l-.66.44c.06-.19.09-.36.2-.38l.45-.06Z" fill="#567ab8"/>
  <path d="M142.75,31.1c-.07.09-.5.37-.7.39.06-.19.09-.34.21-.35l.49-.04Z" fill="#567ab8"/>
  <path d="M42.18,92.83c-.05.22-.08.45-.18.46l-.46.04.64-.5Z" fill="#567ab8"/>
  <path d="M281.39,135.06l-.32-.91c.16.11.28.15.29.28l.03.62Z" fill="#2d64ae"/>
  <path d="M249.89,258.52l-.66-.42.48-.06c.11-.01.14.27.19.48Z" fill="#485f9d"/>
  <path d="M248.9,258.07l-.69-.46.51-.02c.12,0,.14.26.19.48Z" fill="#485f9d"/>
  <path d="M38.56,95.63c.23-.47.85-1.05,1.29-1.3-.29.48-.81.96-1.29,1.3Z" fill="#485f9d"/>
  <path d="M169.24,32.34c-.05.15-.05.45-.15.46l-.48.03v-.46l.64-.04Z" fill="#49bed8"/>
  <path d="M136.44,32.94c-.07.09-.52.35-.72.37.06-.19.1-.35.22-.36h.5Z" fill="#567ab8"/>
  <path d="M34.58,100.21c0-.16.02-.49,0-.65s.22-.16.36-.19l-.07.63c-.01.13-.13.14-.3.22Z" fill="#2a3b7b"/>
  <path d="M164.65,205.21h-.72c.03-.14.11-.55.21-.47l.51.47Z" fill="#1e4494"/>
  <path d="M87.97,103.34l.4-.32c-.07.53-.21,1.27-.4.32Z" fill="#567ab8"/>
  <path d="M98.62,205.2c-.2,0-.61-.19-.69-.28l.48-.02c.11,0,.15.12.21.3Z" fill="#485f9d"/>
  <path d="M210.71,146.14c-.11-.04-.4-.16-.34-.29.1-.2.37-.73.37-.73l-.03,1.02Z" fill="#204c9c"/>
  <path d="M226.72,106.21c-.16-.07-.33-.1-.34-.25v-.65s.34.91.34.91Z" fill="#2d64ae"/>
  <path d="M227.38,108.5c-.16-.07-.34-.1-.34-.25v-.65s.34.91.34.91Z" fill="#2d64ae"/>
  <path d="M74.4,172.7l-.42-.92.42.92Z" fill="#485f9d"/>
  <path d="M280.4,172.26l.33-.91-.03.63c0,.14-.14.18-.29.28Z" fill="#2d64ae"/>
  <path d="M280.73,170.89l.36-.97c-.05.29-.25.8-.36.97Z" fill="#2d64ae"/>
  <path d="M73.04,169.03l-.66.46v-.46h.33c.1,0,.25-.01.33,0Z" fill="#485f9d"/>
  <path d="M70.98,156.69l-.26-.96c.17.1.29.12.29.26l-.02.69Z" fill="#567ab8"/>
  <path d="M233.33,125.94c-.12-.25-.27-.65-.37-.97.15.1.3.17.32.32l.05.65Z" fill="#2555a3"/>
  <polygon points="281.41 168.17 281.39 167.61 281.74 167.2 281.41 168.17" fill="#2d64ae"/>
  <path d="M62.09,43.84l-.66.46c.08-.15.45-.46.66-.46Z" fill="#567ab8"/>
  <path d="M281.74,166.77l.35-.99-.35.99Z" fill="#2d64ae"/>
  <path d="M224.38,38.79l-.72.49.72-.49Z" fill="#2d64ae"/>
  <path d="M223.33,39.3l-.66.45c.07-.21.1-.4.21-.41l.45-.05Z" fill="#2d64ae"/>
  <path d="M216.06,124.13c.06-.17.23-.4.32-.52l-.32.52Z" fill="#2555a3"/>
  <path d="M232.95,124.51c-.09-.08-.28-.28-.33-.44l.33.44Z" fill="#2555a3"/>
  <path d="M232.33,123.19l-.36-.51c.11.12.31.33.36.51Z" fill="#2555a3"/>
  <path d="M225.35,122.73s-.34-.36-.35-.51l.35.51Z" fill="#2555a3"/>
  <path d="M216.72,122.82c.14-.31.45-.79.65-1.06l-.65,1.06Z" fill="#2555a3"/>
  <path d="M52.11,122.67l.36-.4-.36.4Z" fill="#223f88"/>
  <path d="M231.95,122.22l-.33-.44.33.44Z" fill="#2555a3"/>
  <path d="M215.39,125.5c.06-.18.28-.41.38-.49-.06.18-.29.43-.38.49Z" fill="#2555a3"/>
  <path d="M224.99,121.76l-.32-.45s.32.32.32.45Z" fill="#2555a3"/>
  <path d="M217.68,121.34l.4-.45c-.06.17-.29.35-.4.45Z" fill="#2555a3"/>
  <path d="M278.74,126.35c-.08-.08-.27-.29-.32-.45l.32.45Z" fill="#2d64ae"/>
  <path d="M279.07,127.27c-.06-.04-.32-.3-.32-.46l.32.46Z" fill="#2d64ae"/>
  <path d="M57.14,169.45c-.12,0-.29,0-.39,0,.09-.16.29-.16.39,0Z" fill="#485f9d"/>
  <path d="M74.35,169.55l-.31-.4.31.4Z" fill="#485f9d"/>
  <path d="M227.7,128.23c-.22-.22-.53-.65-.63-.97l.63.97Z" fill="#567ab8"/>
  <path d="M218.39,120.03l.32-.51-.32.51Z" fill="#2555a3"/>
  <path d="M224.03,119.07c-.07-.05-.31-.34-.37-.52.05.03.31.34.37.52Z" fill="#2555a3"/>
  <path d="M219.36,118.61l.37-.46-.37.46Z" fill="#2555a3"/>
  <path d="M269.75,172.22c.07-.14.24-.32.34-.42l-.34.42Z" fill="#2555a3"/>
  <path d="M280.07,173.18l.31-.46-.31.46Z" fill="#2d64ae"/>
  <path d="M234.64,128.69l-.26-.51.26.51Z" fill="#2555a3"/>
  <path d="M279.74,174.09c.04-.17.23-.37.32-.45-.03.17-.28.43-.32.45Z" fill="#2d64ae"/>
  <path d="M279.07,175.93l.35-.54c-.04.19-.24.43-.35.54Z" fill="#2d64ae"/>
  <path d="M278.74,176.85l.32-.45-.32.45Z" fill="#567ab8"/>
  <path d="M278.4,177.76l.33-.45-.33.45Z" fill="#2d64ae"/>
  <path d="M278.09,178.67l.3-.49c-.08.14-.21.36-.3.49Z" fill="#2d64ae"/>
  <path d="M229.32,114.56l-.31-.55.31.55Z" fill="#2d64ae"/>
  <path d="M228.01,129.11l-.3-.46.3.46Z" fill="#567ab8"/>
  <path d="M218.35,36.46l.36-.46-.36.46Z" fill="#2d64ae"/>
  <path d="M276.84,180.49l.28-.45c-.08.11-.2.33-.28.45Z" fill="#2d64ae"/>
  <path d="M227.69,109.42l-.28-.47c.08.07.27.3.28.47Z" fill="#2d64ae"/>
  <path d="M273.76,186.01c.19-.29.51-.7.72-.94-.16.28-.52.73-.72.94Z" fill="#2d64ae"/>
  <path d="M42.18,107.92l-.38-.34c.12.03.33.25.38.34Z" fill="#567ab8"/>
  <path d="M227.03,107.13l-.29-.47.29.47Z" fill="#2d64ae"/>
  <path d="M219.04,35.98c.06-.13.21-.38.33-.44l-.33.44Z" fill="#2d64ae"/>
  <path d="M236.28,147.58h-.32c.04-.2.23-.48.34-.63l-.02.63Z" fill="#204c9c"/>
  <path d="M84.32,105.75c.05-.07.3-.4.33-.46-.05.13-.2.42-.33.46Z" fill="#567ab8"/>
  <path d="M181.87,35.47l-.36.08c.16-.09.24-.12.36-.08Z" fill="#b9d0eb"/>
  <path d="M84.98,105.29l.33-.46-.33.46Z" fill="#567ab8"/>
  <path d="M226.37,104.84l-.33-.47.33.47Z" fill="#2d64ae"/>
  <polygon points="86.05 104.77 85.65 104.83 86.05 104.34 86.05 104.77" fill="#567ab8"/>
  <path d="M86.32,104.33l.34-.44-.34.44Z" fill="#567ab8"/>
  <path d="M74.39,204.75h-.39c.09-.16.3-.17.39,0Z" fill="#485f9d"/>
  <path d="M87.28,103.8l.36-.42-.36.42Z" fill="#567ab8"/>
  <path d="M190.2,42.89c-.12,0-.32-.22-.36-.29l.36.29Z" fill="#b9d0eb"/>
  <path d="M210.74,144.33c-.18-.19-.18-.36.02-.54,0,.13-.02.4-.02.54Z" fill="#204c9c"/>
  <path d="M131.44,34.53c.04-.08.25-.32.38-.33l-.38.33Z" fill="#567ab8"/>
  <path d="M37.51,96.59l.71-.94-.71.94Z" fill="#485f9d"/>
  <path d="M222.01,32.86c.07-.15.23-.36.32-.48l-.32.48Z" fill="#b9d0eb"/>
  <path d="M40.17,94.31l.37-.51-.37.51Z" fill="#485f9d"/>
  <path d="M140.71,31.94l.35-.34c-.04.09-.23.33-.35.34Z" fill="#567ab8"/>
  <path d="M271.76,133.24c-.1-.09-.27-.28-.34-.44l.34.44Z" fill="#567ab8"/>
  <path d="M272.06,134.22l-.29-.52.29.52Z" fill="#567ab8"/>
  <path d="M40.88,93.79l.33-.43-.33.43Z" fill="#567ab8"/>
  <path d="M42.84,92.45l.38-.49c-.01.07-.25.41-.38.49Z" fill="#2a3b7b"/>
  <path d="M13.66,66.26l.31-.29-.31.29Z" fill="#567ab8"/>
  <path d="M270.1,171.34l.34-.51c-.06.18-.24.4-.34.51Z" fill="#2555a3"/>
  <path d="M116.44,140.55l.83-.02h10.52s7.94-.02,7.94-.02c2.11,0,4.26.08,6.34.41l-12.24.26c-.45,0-1.47.45-1.91.51l-.37,1.22.78,3.42c1.12,2.91,1.21,2.06,3.24,3.24.22.13.71,1.08.99,1.09l4.87.16c.13,0,2.95.71,2.64,1.25l-3.01.05c-1.36.02-2.83-.16-4.33-.29l-2.92-.24-.29-.45-2.09.05c-1.02.02-2.12-.16-3.29-.26l-2.97-.27-.02,3.14,1.76.35,4.57.68-.29.42-2.06.27.02,2.91c0,.32.61.94.81,1.11l1.27,1.03,3.21,2.5c4.24,3.3.52-.46,5.95,2.75.8.47,1.65.92,2.34,1.41l1.04.75c.27.2.62.39.62.62l-1.44.12c-.51.04-1.35-.22-2-.36l-7.83-1.71c-.88-.19-1.69-.29-2.68-.42l-.35-.39,1.51-.1-1.25-.77c-3.79-5.35-6.54.29-9.05-7.58-.79-2.48-3-2.49-4.64-5.39l-1.39-2.45c-.66-1.16-1.88-2.15-2.91-2.81-.42-.27-2.28-2.66-.95-4.04.13.21-.12-.19-.22-.35l.36-.39h.71c.1.39.45,1,.68,1.29s1.08-.05,1.45-.13c3.17-.69,2.76.35,4.06-1.2.61-.72,1.33-1.35,1.98-1.37Z" fill="#223f88"/>
  <path d="M140.4,169.48l-.51.71-.97.33c-.39.13.6,2.32-.1,4.63.25.33.86,1.07,1.32,1.58,1.61,1.76,1.59,2.07,3.23,1.85l.02-3.65c0-1.61,1.55-2.8,2.44-3.74l.86-.9c.02.54.35,1.34.67,1.53.05.72.13,2.34-.12,3.07-2.75,8.06-8.68,16.38-14.34,20.86l-3.09,2.44h.95s2.67.15,2.67.15v.49h-4.18c-.16.42-.4,1.19-.58,1.29-.35.2-1.38.11-1.62-.29-.19-.31-.48-1.55-.74-1.74l-2.61-1.86c-.56-.4-1.65-1.99-1.62-2.86l.13-3.67.27-.5,2.77-1.59c7.22-4.14,9.56-9.95,13.76-18.11l1.37-.02Z" fill="#223f88"/>
  <path d="M199.42,118.55l-.26.95c-.1.09-.32.31-.39.48-.28.62-.91,1.76-1.34,2.22-.68-.96-2.9.12-3.43.64l-1.3,1.27c-.57.56-2.12,1.37-2.59.69-.54-.78-.98-1.45-1.49-1.27l3.44-6.47c.5-.95,1.16-1.88,1.72-2.57.77.79,1.51,1.49,2.5,2.26,2.21,1.72,2.74.21,3.14,1.79Z" fill="#204c9c"/>
  <path d="M129.2,113.12c.02.63.28,1.68.58,2.1l1.02,1.47c.15.36.33,1.47.11,1.8l-3.04,4.63-2.61,4.42c-.18.31-.67.91-.88,1.15l.04-1.09-1.63.6c-.29.11-1.29-.06-1.3-.45,0-.73.43-2.11.72-2.61l1.34-2.35,1.91-2.81c1.01-.85,2.47-3.63,2.3-5.06l.7-1.89.74.09Z" fill="#2555a3"/>
  <path d="M179.65,176.88c-.12,1.33,2.02,1.08,3,1.29.29.31.74,2.08.45,2.6-1.79,3.27-4.08,1.31-6.02,2.51-3.76-2.31-1.59-4.93-3.35-5.48,0-.22,0-.74-.08-.96.33.1.75.28,1.17.48l1.31.65c.54.27,1.77.05,2.27-.25.65-.39-.54-1.29-.36-1.79l.17-.47.4.43c.33.36.73.72,1.04.98Z" fill="#223f88"/>
  <path d="M108.27,141.95h-.71c-.03-.25-.15-1.01-.26-1.39l-2.04-6.85-3.74-12.21-2.13-7.12-.92-2.52c-.09-.25-.23-.78-.27-.96l.58-.52c.17.65.32,1.29.47,1.77l.82,2.56,1.7,5.12,1.85,5.59,1.8,5.87c.17.56.43,1.29.58,1.87l1.5,5.78.78,3.02Z" fill="#2a3b7b"/>
  <path d="M111.91,107.08c-.42-.01-1.15-.05-1.65,0l-4.71.5c-.34.04-.95,0-1.33,0-1.09-.28,4.37-1.16,4.27-1.15l2.72-.24c.15-.01.64.06.65.24l.04.66Z" fill="#485f9d"/>
  <path d="M109.54,135.57h.31s.4,1.79.4,1.79c-.27.18-.3.29-.08.57l.31.02.09.48-.88.72c-.43.35-1.22-.69-1.54-1.42l.12-2.1,1.27-.06Z" fill="#204c9c"/>
  <path d="M150.68,152.98h-4.98l-.29-.48-3.03.02-1.02-.04.02-.7c.02-.58.75.2,2.31.24l4.58.13c-1.87-.05,4.89.7,2.4.82Z" fill="#223f88"/>
  <path d="M79.33,146.66c-.13-.18-.21-.22-.21-.36l.06-.84.21-3.16c.05-.7.92-7.49,1.62-6.77l-.22,1.1-.71,3.62c-.1.52-.31,1.72-.33,2.25l-.12,3.68-.31.49Z" fill="#567ab8"/>
  <path d="M151.67,158.34l1.68.03.86-3.42c.06-.26.13-.92,0-1.1s-.64-.42-.85-.42l-2-.03.28-.47,2.53.12.73,1.09-.34,1.54-.55,2.5c-.1.45-.85,1.1-1.18.97-.44-.18-.95-.55-1.16-.8Z" fill="#223f88"/>
  <path d="M125.8,110.79l-.33.46-.81-.73-2.49-.99c-.09-.04-.4-.6-.34-.52,2.8-.09,3.84,1.7,3.97,1.78Z" fill="#567ab8"/>
  <path d="M104.23,107.58c.37,0,.98.04,1.33,0l-.29.39-2.08.47c-.2.05-.78.23-.81.48l-.11.96-.55-1.7c1-.39,1.66-.59,2.52-.6Z" fill="#567ab8"/>
  <path d="M106.6,124.51c.02.13-.02.32-.05.49l.33.06.03.91-.31.42-.06-1.39c-.26-.41-.72-1.44-.82-2.02l-.52-3.07c.44.11,1.28,3.77,1.38,4.59Z" fill="#485f9d"/>
  <path d="M116.22,107.53c-.62.02-1.79-.09-2.41-.39l.33-.52,1.72.04c.2,0,.41.78.37.87Z" fill="#485f9d"/>
  <path d="M116.45,132.4c.47-1.07,1.09-2.14,1.76-3.21l3.52-5.58c.16.17.46.48.28.3l-1.59,2.49-1.33,2.27-2.02,3.44c-.07.12-.4.6-.4.58,0-.01-.15-.2-.22-.28Z" fill="#485f9d"/>
  <path d="M128.46,113.03l-.7,1.89h-.35s.35-1.21.35-1.21c.07-.24-.11-.65-.28-1.17-.61-.74-1.29-1.27-2.02-1.29l.33-.46,1.87,1.13c.29.17.74.81.8,1.11Z" fill="#485f9d"/>
  <path d="M131.8,155.6l-1.69.41s-2.41-.39-2.02-1.17c.98,1.01,3.41-.09,3.7.76Z" fill="#223f88"/>
  <path d="M165.61,174.02l-1.43.47-1.25-.43c-.27-.66,2.96-.66,2.68-.04Z" fill="#567ab8"/>
  <path d="M130.03,113.65l.05.61c.01.15.15.19.31.25l.07.34-.29.38.63,1.47-1.02-1.47c-.3-.43-.56-1.47-.58-2.1l.83.52Z" fill="#b9d0eb"/>
  <path d="M110.62,98.89l-.58,1.05c-.59-.47-1-.83-.95-1.15.09-.56.8-.45,1.53.1Z" fill="#204c9c"/>
  <polygon points="140.07 152.06 140.43 152.5 137.35 152.56 137.05 152.11 140.07 152.06" fill="#567ab8"/>
  <path d="M79.65,155.31c-.07-.08-.3-.64-.35-.93l-.21-1.15c-.06-.32.12-1.08.24-1.26l.37.46-.05,2.89Z" fill="#567ab8"/>
  <path d="M150.68,152.98c.13,0,.29.3.33.42l-3.03.08-.28-.5h2.99Z" fill="#567ab8"/>
  <polygon points="140.41 168.6 140.4 169.48 139.03 169.5 138.97 168.72 140.41 168.6" fill="#567ab8"/>
  <path d="M120.17,108.53l-1.37-.51c.06-.16.68-.7.82-.45l.55.96Z" fill="#485f9d"/>
  <path d="M118.22,107.99l-1.41-.42.65-.51c.12-.09.71.1.72.28l.03.65Z" fill="#485f9d"/>
  <path d="M147.43,170.8c-.05.03-.39.16-.34.26.07.17.27.57.29.76-.32-.19-.64-.99-.67-1.53.05-.11.43-.56.49-.34l.24.85Z" fill="#2d64ae"/>
  <path d="M155.69,172.67c-.39,0-.99-.24-1.38-.45l.24-.38c.07-.11.5.11.59.21l.56.62Z" fill="#567ab8"/>
  <path d="M159.67,173.52c-.44-.03-.95-.18-1.38-.39l.24-.38c.07-.11.48.12.57.21l.57.57Z" fill="#567ab8"/>
  <path d="M161.99,174.04l-1.09.03-.32-.49c-.55-.73,2.39.52,1.41.46Z" fill="#567ab8"/>
  <path d="M111.87,139.64c-.22.37-.56.82-.86,1.2l-.07-1.26.93.06Z" fill="#567ab8"/>
  <polygon points="100.91 97.49 100.64 98 99.25 97.95 99.25 97.49 100.91 97.49" fill="#223f88"/>
  <path d="M151.37,171.74c-.31,0-.93-.26-1.08-.45.13-.18.59-.51.71-.28l.37.73Z" fill="#567ab8"/>
  <path d="M122.77,122.25c-.2-.78.03-.26,1.09-1.87.09.07.29.22.28.21l-.55,1.02c-.15.28-.58.55-.81.64Z" fill="#485f9d"/>
  <path d="M184.94,143.36c.02.15.07.64-.06.68l-.69.27c.02-.26,0-.87.19-.89l.55-.07Z" fill="#2d64ae"/>
  <path d="M136.43,123.65c-.33-.25-.67-.92-.71-1.39.32.31.64.85.71,1.39Z" fill="#485f9d"/>
  <path d="M150.05,158.05l-.84.52c-.16.1-.44-.42-.52-.59l1.36.06Z" fill="#223f88"/>
  <path d="M139.4,129.59h-.33l-.34-.94c.15,0,.6.03.62.28l.05.67Z" fill="#567ab8"/>
  <path d="M121.5,109c-.27-.06-.86-.32-.99-.45.33.03.84.24.99.45Z" fill="#2d64ae"/>
  <path d="M97.91,110.85l-.85.67c-.52.4-1.32.95-1.8,1.14l1.22-1.23c.33-.33,1.06-.6,1.44-.58Z" fill="#2d64ae"/>
  <path d="M181.86,134.2l1.4-2.2c.22-.35.74-.88.94-1.05,1.08-.99-3.03,4.95-2.34,3.25Z" fill="#567ab8"/>
  <path d="M157.68,173.12c-.39,0-.99-.23-1.38-.44-.65-.78,2.38.52,1.38.44Z" fill="#567ab8"/>
  <path d="M134.45,119.99c-.2-.24-.52-.67-.7-.97.17,0,.61.01.61.27,0,.18.06.53.09.69Z" fill="#2d64ae"/>
  <path d="M55.79,121.34c-.17.15-.68.36-1,.46.17-.15.68-.36,1-.46Z" fill="#223f88"/>
  <path d="M177.21,140.62l.71-.94c0,.07.06.64-.06.68l-.65.26Z" fill="#204c9c"/>
  <path d="M117.27,140.1v.42l-.83.02v-.43c.31-.11.68-.15.83-.01Z" fill="#567ab8"/>
  <path d="M139.7,130.49c-.19-.18-.52-.6-.63-.9h.33c.14.13.24.16.25.29l.04.61Z" fill="#485f9d"/>
  <path d="M118.18,138.28c-.15.22-.45.51-.84.93l-.07.9c-.16-.14-.52-.1-.82.01l.8-1.29c.15-.25.76-.52.93-.55Z" fill="#223f88"/>
  <path d="M151.39,135.55c-.17-.09-.31-.11-.3-.27l.03-.65c.07.14.23.66.28.92Z" fill="#2d64ae"/>
  <path d="M109.6,134.64c-.15-.07-.34-.11-.34-.25v-.64s.34.9.34.9Z" fill="#567ab8"/>
  <path d="M151.05,133.72c-.16-.08-.31-.11-.32-.26l-.02-.64c.08.1.29.63.33.9Z" fill="#2d64ae"/>
  <path d="M99.25,97.49v.46c-.21,0-.61-.31-.66-.47h.66Z" fill="#2555a3"/>
  <path d="M150.71,132.36c-.16-.13-.25-.15-.26-.29l-.07-.68.34.97Z" fill="#567ab8"/>
  <path d="M108.26,130.05c-.16-.07-.33-.11-.33-.26l-.02-.64.35.9Z" fill="#2d64ae"/>
  <path d="M130.39,114.5c-.16-.06-.29-.1-.31-.25l-.05-.61c.11.07.43-.04.41.13s-.04.52-.05.72Z" fill="#2d64ae"/>
  <path d="M166.97,173.64c-.07.18-.1.32-.22.33l-.5.02c.08-.07.52-.3.72-.36Z" fill="#567ab8"/>
  <path d="M153.37,172.15c-.1,0-.37,0-.48,0-.11,0-.12-.11-.19-.32l.68.32Z" fill="#567ab8"/>
  <path d="M107.9,128.7c-.15-.12-.26-.17-.27-.3l-.08-.64.35.94Z" fill="#567ab8"/>
  <path d="M56.78,120.88l-.66.46.66-.46Z" fill="#223f88"/>
  <path d="M107.55,127.76l-.33-1,.33,1Z" fill="#2d64ae"/>
  <path d="M135.44,121.83l-.69-1.42c.31.27.62.91.69,1.42Z" fill="#485f9d"/>
  <path d="M137.78,126.44c-.11-.11-.32-.35-.38-.54l.64.21c.1.03-.17.24-.27.33Z" fill="#2d64ae"/>
  <path d="M137.06,124.64l-.32-.55c.1.15.27.36.32.55Z" fill="#485f9d"/>
  <path d="M196.78,123.64c.08-.16.3-.38.4-.48-.05.19-.3.41-.4.48Z" fill="#204c9c"/>
  <path d="M180.21,120.47c.07-.13.24-.41.35-.53-.07.13-.23.42-.35.53Z" fill="#567ab8"/>
  <path d="M148.39,170.88l-.39-.05c.15-.08.23-.07.39.05Z" fill="#567ab8"/>
  <path d="M152.36,171.82c-.11-.02-.28-.06-.37-.06.06-.28.17-.24.37.06Z" fill="#567ab8"/>
  <path d="M171.27,171.81l-.36-.03c.17-.36.23-.33.36.03Z" fill="#567ab8"/>
  <path d="M193.87,128.67c.16-.27.47-.68.66-.89-.15.26-.48.68-.66.89Z" fill="#204c9c"/>
  <path d="M93.91,113.53c.2-.3.48-.72.72-.78l-.72.78Z" fill="#2d64ae"/>
  <path d="M193.47,129.61c.07-.16.27-.37.38-.49l-.38.49Z" fill="#204c9c"/>
  <path d="M141.72,136.56c-.06-.02-.32-.4-.33-.6.04.01.3.4.33.6Z" fill="#2d64ae"/>
  <path d="M108.56,130.99l-.28-.48c.08.09.25.32.28.48Z" fill="#2d64ae"/>
  <path d="M140.06,131.49l-.35-.54c.1.12.29.36.35.54Z" fill="#2d64ae"/>
  <path d="M192.15,131.91c.15-.3.51-.75.71-.95-.14.3-.51.76-.71.95Z" fill="#204c9c"/>
  <path d="M109.23,133.28c-.1-.1-.29-.33-.33-.52l.33.52Z" fill="#2d64ae"/>
  <path d="M185.52,142.94l.35-.52-.35.52Z" fill="#2d64ae"/>
  <path d="M141.37,135.13s-.27-.35-.32-.52l.32.52Z" fill="#2d64ae"/>
  <path d="M187.21,140.22c.07-.16.23-.38.32-.52l-.32.52Z" fill="#2d64ae"/>
  <polygon points="109.85 135.57 109.54 135.57 109.62 135.06 109.85 135.57" fill="#567ab8"/>
  <path d="M190.14,135.57c.07-.17.29-.38.4-.47-.08.16-.29.37-.4.47Z" fill="#2d64ae"/>
  <path d="M178.5,139.2l.38-.46-.38.46Z" fill="#204c9c"/>
  <path d="M110.91,139.19l-.33-.43.33.43Z" fill="#567ab8"/>
  <path d="M229.78,28.72l-.16.79-2.96,1.4c-.21.1-.93.1-1,.09l-.3-.8,3.6-1.79c.19-.09.9.24.82.31Z" fill="#b9d0eb"/>
  <polygon points="209.08 199.29 209.38 199.78 215.41 199.69 214.72 200.26 205.95 200.18 204.73 199.76 202.41 199.77 202.09 199.33 209.08 199.29" fill="#223f88"/>
  <path d="M200.45,137.43c.03-.16.06-.41.09-.54.01-.07-.09.53-.09.54Z" fill="#204c9c"/>
  <path d="M199.15,148.43c0-.13.02-.38.03-.5.17.14.14.3-.03.5Z" fill="#204c9c"/>
  <path d="M199.79,141.61c.01-.15.06-.43.09-.59,0-.07-.09.59-.09.59Z" fill="#204c9c"/>
  <path d="M133.43,198.84h12.28l.08.61,1.5,1.36c2.03,1.84,3.17,1.33,5.42,3.03l.07.81-29.64.14-.3-.46-4.22-.04c-.2-.32-.69-1.13-.91-1.26l-2.51-1.51c-2.76-1.67-6.38-4.24-8.06-7.6-.2-.39-.11-1.5-.11-1.97v-.45s.82.03.82.03l.35.59,2.71.34c.65.08,4.02-.41,3.63-.93h.61c.25.34,1,.45,1.47.27l5.6-2.1-.13,3.67c-.03.86,1.06,2.46,1.62,2.86l2.61,1.86c.26.19.55,1.43.74,1.74.24.4,1.27.49,1.62.29.17-.1.42-.87.58-1.29h4.18Z" fill="#2a3b7b"/>
  <path d="M104.96,191.01c.03.09-.62.31-.79.24l-2.06-.86c-.22-.09-.84-.66-.88-.75l2.99.94c.2.06.75.41.74.43Z" fill="#485f9d"/>
  <path d="M107.03,191.5v.45c-.57.11-1.32-.23-1.51-.91.5.03,1.1.21,1.51.47Z" fill="#485f9d"/>
  <path d="M217.72,100.28c-.05-.02-.31-.35-.34-.54.05.02.3.35.34.54Z" fill="#2d64ae"/>
  <path d="M217.04,98.05l-.34-.59c.1.12.3.39.34.59Z" fill="#2d64ae"/>
  <path d="M216.69,97c-.07-.07-.26-.32-.31-.49l.31.49Z" fill="#2d64ae"/>
  <path d="M184.48,21.83l.21,1.41c-.15,2.51-1.94,3.72-3.47,3.07l-.25-.27c.22-1.02,1.83.48,2.73-2.75l-.43-1.98,1.21.52Z" fill="#b9d0eb"/>
  <path d="M138.07,105.9l-.08,1.2c-1.12-.14-3.06-1.82-2.87-3.74.08.02.19.05.25.05,1.84-.16,1.88,2.81,2.7,2.49Z" fill="#b9d0eb"/>
  <path d="M206.44,118.61l.29-.5-.29.5Z" fill="#567ab8"/>
  <path d="M206.73,117.69l.38-.5c-.08.16-.27.38-.38.5Z" fill="#567ab8"/>
  <path d="M103.28,67.27l-.54.48c-.14.12-.46-.33-.5-.47l1.04-.02Z" fill="#223f88"/>
  <path d="M100.25,67.34c-.16.12-.5.3-.69.32.06-.2.1-.36.21-.36l.48.04Z" fill="#223f88"/>
  <polygon points="165.28 198.75 145.71 198.84 133.43 198.84 133.43 198.35 164.93 198.39 165.28 198.75" fill="#567ab8"/>
  <path d="M171.56,198.81l.39.04c-.11.22-.25.19-.39-.04Z" fill="#1e4494"/>
  <path d="M83.61,169.03c0-.14.52-.54.75-.53l.98.03c-.07-.11-.45-.62-.52-.81l-.87-2.26c-.21-.54-.42-1.34-.56-1.85,1,.1,2.97,0,4.08.13l3.83.42,3.99.44,2.97.42,2.98.49,2.32.46,3.33.5c.33.05,1.06.37,1.38.53l-4.39.43-3.6.35-3.67.35-2.04.18-5.29.37-3.63.26-2.04.08Z" fill="#2555a3"/>
  <path d="M82.03,163.49l1.36.13c.14.5.36,1.31.56,1.85l.87,2.26c.07.19.45.7.52.81l-.98-.03s-.21-.18-.4-.35c-.3-.1-.91-.28-1.06-.48l-1.52-2.07c-.26-.36-.31-1.47-.11-1.92.19.05.56-.22.75-.2Z" fill="#223f88"/>
  <path d="M82.03,163.49c-.19-.02-.56.25-.75.2l-.63-.15-.41-2.05-.78-3.64c-.1-.48,0-1.46.2-1.69l.18.73,1.17,5.96c.23.15,1.05.65,1.02.64Z" fill="#567ab8"/>
  <polygon points="83.34 169.05 83.32 169.59 82.57 169.21 83.34 169.05" fill="#2555a3"/>
  <path d="M81,70.9h.33l.71.37c-.53-.06-.9-.17-1.04-.37Z" fill="#223f88"/>
  <path d="M81.33,70.44v.46h-1.05c.25-.2.76-.46,1.05-.46Z" fill="#567ab8"/>
  <path d="M64.74,180.03l.29.47,2.1.62-.2,2.65-.13,1.68c-.75-.07-2.19-.12-3.1-.19l-2.9-.23c-.2-.02-.7-.44-.69-.5.64-1.21,1.23-2.58,1.72-3.93l1.92-.22c.24-.03.77-.35,1-.35Z" fill="#223f88"/>
  <path d="M68.1,185.52c-.11,0-.27.03-.37.02.12-.31.19-.31.37-.02Z" fill="#223f88"/>
  <polygon points="186.33 278.44 184.27 278.37 185.31 274.81 186.33 278.44" fill="#b9d0eb"/>
  <polygon points="128.21 278.61 126.11 278.49 127.11 275.2 128.21 278.61" fill="#b9d0eb"/>
  <path d="M138.4,105.76l.34-.49-.34.49Z" fill="#b9d0eb"/>
  <path d="M158.39,282.73l-6.08-.03.75-.38c2.99-1.51.44-1.26,5.2-1.45l.13,1.85Z" fill="#2c3261"/>
  <path d="M183.27,21.31l.43,1.98c-.9,3.23-2.51,1.73-2.73,2.75-.1,0-.81-.08-.77-.35l.18-1.38c.12-.89.81-2.63,1.4-3.26.31-.33,1.15.1,1.49.26Z" fill="#49bed8"/>
  <path d="M173.72,177.81c1.77.55-.41,3.16,3.35,5.48,1.94-1.2,4.23.76,6.02-2.51.28-.52-.16-2.29-.45-2.6-.98-.21-3.11.04-3-1.29,1.52-.02,3.19-.06,4.74.17s2.35,2.43,2.19,4.44c-.11,1.41-.91,3.18-1.99,3.17h-9.69c-1.09-.02-2.05-1.4-2.13-3-.06-1.21.51-2.85.97-3.84Z" fill="#2a3b7b"/>
  <polygon points="215.41 199.69 209.38 199.78 209.08 199.29 215.11 199.28 215.41 199.69" fill="#567ab8"/>
  <path d="M198.77,119.98c.07-.16.29-.38.39-.48-.05.18-.29.41-.39.48Z" fill="#2555a3"/>
  <path d="M126.1,165.84h-.28s-.28-.52-.28-.52l-1.8.04-4.54-.91-.29-.47c-.53.01-.88.04-1.1.02-2.04-.15-6.26-1.1-8.36-2.31-4.34-2.5-5.79-10.41-4.54-14.24l.2-.47c-.03-1.65,1.25-3.7,2.1-4.63.1.16.35.57.22.35-1.32,1.39.53,3.78.95,4.04,1.03.66,2.25,1.64,2.91,2.81l1.39,2.45c1.64,2.89,3.85,2.91,4.64,5.39,2.52,7.87,5.26,2.23,9.05,7.58l1.25.77-1.51.1Z" fill="#2a3b7b"/>
  <path d="M114.54,191.53c.39.52-2.98,1.01-3.63.93l-2.71-.34-.35-.59h6.69Z" fill="#485f9d"/>
  <path d="M122.49,189.2l-.27.5-5.6,2.1c-.47.18-1.22.07-1.47-.28l1.67-.52,3.79-1.18,1.88-.62Z" fill="#485f9d"/>
  <path d="M125.83,165.84h-1.36c-.18-.01-.69-.42-.72-.49l1.8-.04.28.52Z" fill="#485f9d"/>
  <path d="M119.2,164.45c-.21-.04-.58-.01-1.11,0l-.29-.44c.21.02.57,0,1.1-.02l.29.47Z" fill="#485f9d"/>
  <path d="M104.91,147.46c.04-.13.14-.34.2-.47l-.2.47Z" fill="#485f9d"/>
  <path d="M124.74,119.04c.16-1.63.07-.15,1.76-2.78l.29.29-1.4,1.9c-.13.17-.58.54-.65.59Z" fill="#485f9d"/>
  <polygon points="110.48 137.95 110.17 137.93 110.26 137.36 110.48 137.95" fill="#2d64ae"/>
  <polygon points="129.81 151.59 127.72 151.61 127.43 151.19 129.52 151.14 129.81 151.59" fill="#567ab8"/>
  <polygon points="145.71 152.98 142.68 152.98 142.39 152.52 145.42 152.5 145.71 152.98" fill="#567ab8"/>
  <path d="M110.17,137.93c-.21-.28-.19-.39.08-.57l-.08.57Z" fill="#1e4494"/>
</svg>